<?xml version="1.0" encoding="UTF-8"?>
<svg width="124px" height="48px" viewBox="0 0 124 48" version="1.1" xmlns="http://www.w3.org/2000/svg" xmlns:xlink="http://www.w3.org/1999/xlink">
    <!-- Generator: Sketch 57.1 (83088) - https://sketch.com -->
    <title>Logo/New/Alibaba_Grey</title>
    <desc>Created with Sketch.</desc>
    <g id="Logo/New/Alibaba_Grey" stroke="none" stroke-width="1" fill="none" fill-rule="evenodd">
        <g id="Logo_Alibaba_Grey" transform="translate(0.000000, 14.000000)" fill="#6E7274" fill-rule="nonzero">
            <g id="Alibaba_Logo" transform="translate(0.000000, 0.500000)">
                <path d="M32.8492887,8.56759017 L30.0963138,8.56759017 L34.3454291,0.360541953 L37.3932376,0.360541953 L41.4475884,8.56759017 L38.3887938,8.56759017 L37.7716613,7.08816711 L33.5115598,7.088167 L32.8492887,8.56759017 Z M37.0316515,5.30170516 L35.7191701,2.31574977 L34.32895,5.30170516 L37.0316515,5.30170516 Z M41.8495367,8.56759017 L41.8495367,0.360541953 L44.4916952,0.360541953 L44.4916952,8.56759017 L41.8495367,8.56759017 Z M46.0875465,2.04429928 L46.0875465,0.369618136 L48.7301826,0.369618136 L48.7301826,2.04429928 L46.0875465,2.04429928 Z M46.0875465,8.56759017 L46.0875465,2.8543515 L48.7301826,2.8543515 L48.7301826,8.56759017 L46.0875465,8.56759017 Z M50.2125906,0.360541953 L52.8546297,0.360541953 L52.8546297,3.66607561 C53.1696444,3.34315342 53.5213192,3.10024522 53.91049,2.93842585 C54.2991833,2.77684536 54.7252531,2.69599531 55.1878636,2.69599531 C56.0880078,2.69599531 56.811419,2.9834486 57.3580973,3.55871345 C57.904059,4.13362003 58.176801,4.89626091 58.176801,5.84615854 C58.176801,6.71090686 57.907522,7.40368478 57.3684862,7.92520898 C56.8292117,8.44661368 56.1142789,8.7068383 55.2212995,8.7068383 C54.7289548,8.7068383 54.2823456,8.61727034 53.8818304,8.43753749 C53.4822705,8.25756575 53.1395518,7.99351954 52.8545101,7.6448017 C52.8545101,7.83396913 52.8475841,8.00617842 52.8320602,8.16178775 C52.8177305,8.31751646 52.7934894,8.45258495 52.7595758,8.56759005 L50.1177755,8.56759005 C50.1476291,8.46010851 50.1700789,8.32539841 50.1864387,8.16489266 C50.2038732,8.00331217 50.2122321,7.81916056 50.2122321,7.61160176 L50.2122323,0.360541953 L50.2125906,0.360541953 Z M55.5062218,5.73115344 C55.5062218,5.22682639 55.3878824,4.82902542 55.150487,4.53786994 C54.9135693,4.24707273 54.5915091,4.10101738 54.183829,4.10101738 C53.7462954,4.10101738 53.4116968,4.2408628 53.1806304,4.52127008 C52.9489668,4.80155798 52.8324186,5.20819623 52.8324186,5.74261809 C52.8324186,6.24694514 52.9499221,6.63925262 53.1827798,6.91930162 C53.4165928,7.19911173 53.7422353,7.33919604 54.1614986,7.33919604 C54.5731193,7.33919604 54.9000754,7.19469309 55.1426056,6.90532912 C55.3850165,6.61584554 55.5062218,6.2246129 55.5062218,5.73115344 Z M64.0199764,7.72457691 C63.7686095,8.05478399 63.4417728,8.29924459 63.0413771,8.45843672 C62.6405037,8.61786763 62.1553238,8.69776223 61.5846434,8.69776223 C60.7720297,8.69776223 60.1473742,8.55337878 59.7098405,8.26437298 C59.2725458,7.9750089 59.0536595,7.565385 59.0536595,7.03526241 C59.0536595,6.31262846 59.4311278,5.79050721 60.1853478,5.46985409 C60.9400455,5.1488427 62.2030895,4.98152984 63.9753156,4.96660188 C63.9753156,4.95501773 63.9772262,4.93423801 63.9810475,4.90271008 C63.9848688,4.87130155 63.9868988,4.84801397 63.9868988,4.8333248 C63.9868988,4.54085569 63.8982935,4.3226683 63.722874,4.17840424 C63.5463798,4.03402078 63.2827132,3.96153047 62.9302025,3.96153047 C62.6120831,3.96153047 62.3675228,4.01467407 62.1967605,4.11976715 C62.0263564,4.22557668 61.9252126,4.38345508 61.8914184,4.5942383 L59.4534582,4.5942383 C59.4650414,3.96081403 59.7648905,3.48908962 60.3547965,3.17918471 C60.9442249,2.86927968 61.8435333,2.71462582 63.0529603,2.71462582 C64.2136663,2.71462582 65.0781057,2.89555301 65.645562,3.25669084 C66.2127794,3.61782868 66.4969852,4.16789505 66.4969852,4.90545695 L66.4969852,7.8192803 C66.4969852,8.0002075 66.5054636,8.14614346 66.5221816,8.2572077 C66.5386607,8.36827194 66.5674396,8.47157362 66.6080404,8.56770979 L64.1594523,8.56770979 C64.1108506,8.4310889 64.0758624,8.29339317 64.0532931,8.15486137 C64.0317984,8.01597117 64.0199764,7.87266256 64.0199764,7.72457691 Z M63.9649265,6.09217188 C63.1100403,6.09217188 62.5271795,6.14770395 62.2172998,6.2586488 C61.9068229,6.36983243 61.7515844,6.56413506 61.7515844,6.8420345 C61.7515844,7.03084365 61.8270542,7.17773507 61.977516,7.28342521 C62.1282167,7.38863768 62.340774,7.4411841 62.6162626,7.4411841 C63.0654988,7.4411841 63.402605,7.33668819 63.6271038,7.12781588 C63.8521995,6.91870468 63.965046,6.60318677 63.965046,6.18126217 L63.965046,6.09217188 L63.9649265,6.09217188 Z M67.9770047,0.360541953 L70.6197603,0.360541953 L70.6197603,3.66607561 C70.9339391,3.34315342 71.2863303,3.10024522 71.6751429,2.93842585 C72.0635973,2.77684536 72.4902642,2.69599531 72.9528748,2.69599531 C73.8526607,2.69599531 74.5760719,2.9834486 75.1223919,3.55871345 C75.668473,4.13362003 75.9419315,4.89626091 75.9419315,5.84615854 C75.9419315,6.71090686 75.6722943,7.40368478 75.1330197,7.92520898 C74.5945811,8.44661368 73.8786931,8.7068383 72.9861913,8.7068383 C72.4933689,8.7068383 72.0469987,8.61727034 71.6474387,8.43753749 C71.2472817,8.25756575 70.904563,7.99351954 70.6198795,7.6448017 C70.6198795,7.83396913 70.6124758,8.00617842 70.5974296,8.16178775 C70.5827416,8.31751646 70.5588588,8.45258495 70.5253034,8.56759005 L67.8830255,8.56759005 C67.9120431,8.46010851 67.9350902,8.32539841 67.9525246,8.16489266 C67.9693619,8.00331217 67.9771239,7.81916056 67.9771239,7.61160176 L67.9771241,0.360541953 L67.9770047,0.360541953 Z M73.2715914,5.73115344 C73.2715914,5.22682639 73.1525354,4.82902542 72.9156176,4.53786994 C72.6782222,4.24707273 72.3554457,4.10101738 71.9482431,4.10101738 C71.5109484,4.10101738 71.1765886,4.2408628 70.9451639,4.52127008 C70.713381,4.80155798 70.5974297,5.20819623 70.5974297,5.74261809 C70.5974297,6.24694514 70.7140974,6.63925262 70.9471939,6.91930162 C71.1814846,7.19911173 71.5074854,7.33919604 71.9265097,7.33919604 C72.3375334,7.33919604 72.6642507,7.19469309 72.906542,6.90532912 C73.150147,6.61584554 73.2715914,6.2246129 73.2715914,5.73115344 Z M81.7840323,7.72457691 C81.5320684,8.05478399 81.206187,8.29924459 80.8059107,8.45843672 C80.4045596,8.61786763 79.9196184,8.69776223 79.348938,8.69776223 C78.5369215,8.69776223 77.9111911,8.55337878 77.4738963,8.26437298 C77.0370792,7.9750089 76.8180735,7.565385 76.8180735,7.03526241 C76.8180735,6.31262846 77.1955418,5.79050721 77.9500006,5.46985409 C78.7044596,5.1488427 79.9678617,4.98152984 81.7403266,4.96660188 C81.7403266,4.95501773 81.7423566,4.93423801 81.7462973,4.90271008 C81.7495214,4.87130155 81.7507156,4.84801397 81.7507156,4.8333248 C81.7507156,4.54085569 81.6628268,4.3226683 81.487049,4.17840424 C81.3115102,4.03402078 81.0467689,3.96153047 80.6953329,3.96153047 C80.3762582,3.96153047 80.1319367,4.01467407 79.9617715,4.11976715 C79.7912481,4.22557668 79.6896265,4.38345508 79.6564294,4.5942383 L77.2182303,4.5942383 C77.2292164,3.96081403 77.5288266,3.48908962 78.1189717,3.17918471 C78.7085196,2.86927968 79.6087832,2.71462582 80.8172549,2.71462582 C81.9783191,2.71462582 82.8424003,2.89555301 83.410573,3.25669084 C83.977671,3.61782868 84.261638,4.16789505 84.261638,4.90545695 L84.261638,7.8192803 C84.261638,8.0002075 84.2696388,8.14614346 84.2865955,8.2572077 C84.3031942,8.36827194 84.3319729,8.47157362 84.3725737,8.56770979 L81.9235079,8.56770979 C81.8749063,8.4310889 81.839918,8.29339317 81.8173487,8.15486137 C81.7962125,8.01597117 81.7840323,7.87266256 81.7840323,7.72457691 Z M81.7291018,6.09217188 C80.8743349,6.09217188 80.2923102,6.14770395 79.9817138,6.2586488 C79.6713563,6.36983243 79.5161178,6.56413506 79.5161178,6.8420345 C79.5161178,7.03084365 79.5914682,7.17773507 79.7420494,7.28342521 C79.8931084,7.38863768 80.105188,7.4411841 80.3804377,7.4411841 C80.8297933,7.4411841 81.1672579,7.33668819 81.3921148,7.12781588 C81.6167329,6.91870468 81.7292213,6.60318677 81.7292213,6.18126217 L81.7292213,6.09217188 L81.7291018,6.09217188 Z M92.4669458,5.37574799 L92.4669458,4.41761012 L95.9189714,4.41761012 L95.9189714,7.43628767 C95.388056,7.85809277 94.8419748,8.17564097 94.2788174,8.38809598 C93.7158989,8.6004316 93.1378147,8.7068383 92.5451622,8.7068383 C91.74449,8.7068383 91.0171381,8.53570385 90.3632259,8.19283789 C89.709075,7.84961364 89.2156555,7.3538851 88.8818929,6.70505509 C88.548369,6.05586692 88.3817863,5.33168046 88.3817863,4.53094332 C88.3817863,3.73796875 88.5476525,2.99694354 88.8798628,2.30918133 C89.2105208,1.62153861 89.6876998,1.11112089 90.3106838,0.777331118 C90.9330706,0.443541341 91.649914,0.276586759 92.4607364,0.276586759 C93.0500454,0.276586759 93.5827522,0.372484152 94.0581401,0.563562376 C94.5348415,0.754998882 94.9082498,1.02095588 95.1788424,1.36286639 C95.4495543,1.70406045 95.6548274,2.14963091 95.7950196,2.69886133 L94.8188086,2.96577367 C94.6966479,2.54993972 94.5451112,2.22283767 94.3640793,1.98470651 C94.1823309,1.74657523 93.9243963,1.55609418 93.5866929,1.41278557 C93.2500643,1.26947696 92.8773726,1.19794199 92.4668265,1.19794199 C91.9744819,1.19794199 91.5493672,1.27317905 91.1906471,1.42341427 C90.8313298,1.57448544 90.5419892,1.77201261 90.3223865,2.01778695 C90.101709,2.26296422 89.9311856,2.53226503 89.8092636,2.82604775 C89.6013635,3.33156904 89.4983091,3.87972473 89.4983091,4.47039521 C89.4983091,5.1991197 89.6229776,5.8092564 89.872792,6.29949145 C90.1223677,6.78996539 90.4849092,7.15396936 90.9630437,7.39198113 C91.4396257,7.62987351 91.9468973,7.74858081 92.4824699,7.74858081 C92.9487824,7.74858081 93.4035116,7.65877408 93.8476129,7.47808566 C94.2912367,7.29787502 94.6281041,7.10500539 94.8574989,6.90019345 L94.8574989,5.37586703 L92.4669458,5.37586738 L92.4669458,5.37574799 Z M97.3704509,8.56759017 L97.3704509,2.65885463 L98.2733416,2.65885463 L98.2733416,3.55584744 C98.504408,3.13750553 98.7170848,2.86175578 98.9130434,2.72823992 C99.107808,2.59508233 99.32347,2.52844379 99.5578801,2.52844379 C99.8959417,2.52844379 100.240332,2.63496988 100.590335,2.84849984 L100.24081,3.77630402 C99.9951748,3.63275651 99.7507339,3.56146043 99.5059349,3.56146043 C99.287407,3.56146043 99.0907317,3.62702413 98.9159093,3.75886809 C98.7422811,3.89059267 98.617732,4.07319177 98.5428593,4.30642661 C98.4316847,4.66290691 98.3756794,5.05222874 98.3756794,5.47463102 L98.3756794,8.56747078 L97.3704509,8.56747066 L97.3704509,8.56759017 Z M100.980103,5.61328209 C100.980103,4.52031474 101.285087,3.71038192 101.893502,3.18431969 C102.401371,2.74686995 103.020653,2.52844367 103.751707,2.52844367 C104.564201,2.52844367 105.228263,2.79428129 105.744133,3.32583689 C106.258808,3.85739261 106.516743,4.59220777 106.516743,5.52980468 C106.516743,6.28946004 106.402821,6.88705713 106.174501,7.32211829 C105.946778,7.757896 105.614568,8.09562676 105.178706,8.33626588 C104.743203,8.57726329 104.267098,8.69764261 103.751707,8.69764261 C102.924405,8.69764261 102.256163,8.43287984 101.746026,7.90299614 C101.235053,7.37311243 100.980103,6.60987438 100.980103,5.61328209 Z M102.013753,5.6148346 C102.013753,6.37150433 102.178305,6.93781239 102.508008,7.31435596 C102.837233,7.69089941 103.251958,7.87923089 103.751707,7.87923089 C104.247753,7.87923089 104.661046,7.68958579 104.989674,7.3117286 C105.318779,6.93339374 105.483451,6.35681527 105.483451,5.58163478 C105.483451,4.85099949 105.318302,4.29782798 104.986569,3.92152342 C104.65603,3.54497997 104.243574,3.35640959 103.751587,3.35640959 C103.251839,3.35640959 102.837113,3.5441439 102.507888,3.91853778 C102.178305,4.29293167 102.013753,4.85852316 102.013753,5.6148346 Z M111.719739,8.56759017 L111.719739,7.69352677 C111.259636,8.36265883 110.636174,8.69764284 109.847563,8.69764284 C109.498037,8.69764284 109.173708,8.6310043 108.87171,8.49736905 C108.569473,8.36409196 108.34581,8.19606253 108.199647,7.99459451 C108.053126,7.79205163 107.950788,7.54496356 107.891081,7.25225568 C107.85036,7.05556458 107.829941,6.74434593 107.829941,6.31752489 L107.829941,2.65897425 L108.835289,2.65897425 L108.835289,5.93202464 C108.835289,6.45462357 108.85547,6.80644632 108.896071,6.98785119 C108.958882,7.25070317 109.092626,7.45730652 109.29575,7.60754174 C109.499112,7.75741868 109.751434,7.83253635 110.051045,7.83253635 C110.351371,7.83253635 110.631995,7.75610506 110.895661,7.60180936 C111.158014,7.44834972 111.344181,7.23899963 111.452848,6.97399796 C111.562112,6.70899642 111.617281,6.32492918 111.617281,5.8209604 L111.617281,2.65909364 L112.621674,2.65909364 L112.621674,8.56782918 L111.719739,8.56782894 L111.719739,8.56759017 Z M114.362972,10.8287619 L114.362972,2.65897402 L115.27446,2.65897402 L115.27446,3.42722789 C115.489167,3.12723511 115.732891,2.90271817 116.003962,2.75343828 C116.273957,2.60332245 116.602107,2.52868257 116.987457,2.52868257 C117.491146,2.52868257 117.93668,2.65825745 118.322388,2.91740735 C118.70738,3.17679602 118.998034,3.54330795 119.19447,4.01527113 C119.391504,4.48783148 119.49002,5.00565336 119.49002,5.56861762 C119.49002,6.17254415 119.381353,6.71651997 119.164497,7.20018669 C118.948119,7.68337574 118.632268,8.05394804 118.22017,8.31166481 C117.806997,8.56938157 117.372329,8.69788162 116.918316,8.69788162 C116.584912,8.69788162 116.285302,8.62789927 116.019963,8.48757618 C115.755819,8.34749199 115.537769,8.17074466 115.368081,7.95685641 L115.368081,10.8290008 L114.362972,10.8290008 L114.362972,10.8287619 Z M115.265146,5.64743726 C115.265146,6.40792857 115.418951,6.96957909 115.726443,7.33346366 C116.033338,7.69722885 116.404357,7.87923077 116.841652,7.87923077 C117.285515,7.87923077 117.665252,7.6908993 117.982058,7.31435584 C118.299222,6.93769288 118.456371,6.35430718 118.456371,5.56384058 C118.456371,4.81075355 118.302804,4.24707285 117.993044,3.87220129 C117.684716,3.49756852 117.315488,3.3100731 116.886552,3.3100731 C116.460363,3.3100731 116.083372,3.50986923 115.756177,3.90826737 C115.429341,4.30714306 115.265146,4.88658778 115.265146,5.64743726 Z M4.04133026,15.8948425 C3.89468963,15.8777648 3.66565323,15.7480706 3.5030111,15.6171819 C1.9557614,14.1019317 3.94269413,12.3590595 6.24058161,11.3483752 L6.24058161,8.46476616 C6.77794551,8.80739323 7.0717044,8.82339614 7.08758652,8.8718822 L8.8466771,7.12901 L8.2605922,5.62940428 C13.4088964,3.85345175 15.477628,3.16915284 19.6648869,2.46873174 L18.9144881,1.76771359 L20.1370506,1.06800905 C22.9554645,1.99712684 25.6118333,2.24075161 25.1548351,4.60307547 C25.2695921,3.0069753 23.281704,2.38716524 20.25133,1.5405694 L19.6648869,1.89812454 L20.7886939,2.82724233 C15.7711482,3.69067704 12.6919338,4.66851978 9.02627611,5.93918992 L9.5309205,7.24305987 L7.69050892,9.05125689 C8.00050818,9.13306228 11.2096453,10.2078773 14.5484662,7.87827555 C14.5484662,7.87827555 14.6147411,7.82931171 14.6147411,7.81342841 C14.5176574,7.65005653 14.2885015,7.47080135 14.0119382,7.2268183 C14.9893434,7.29202372 15.6239104,8.15545842 15.5104669,9.051257 L15.0543047,9.051257 C15.0867853,8.75819084 15.0215851,8.44828581 14.9242626,8.23678615 C12.3338105,10.1266692 9.33567825,10.4039714 6.778065,9.50781456 L6.778065,11.7397276 C5.53985919,12.1798046 3.32353171,13.548044 3.34048847,14.8686333 C3.42180936,15.5032516 3.7479295,15.7314707 4.04133026,15.8948425 Z M14.5177765,15.3243547 C11.7460536,16.7257939 9.09183425,17.8501698 5.00213681,18.0128251 C-0.324691689,17.8984171 -1.15557561,14.3625147 1.36895988,10.6643153 C3.7479295,6.93327435 7.5275083,3.56038559 13.5396548,1.45840573 C15.2826244,0.839909414 17.8404765,0.139010648 20.3168882,0.106288492 C23.8685052,0.0730886661 27.3229191,1.18193942 27.0943604,4.58719206 C26.9638406,7.19397664 23.2010993,10.876412 21.2129723,13.5159188 C20.3652509,14.6720614 20.2184909,15.4222822 21.6681792,15.3573156 C26.9318376,15.014569 31.7047036,13.1901303 36.1359257,11.3000085 C33.1389875,13.3365441 17.6445179,21.0103646 17.5799148,15.7807927 C17.5959163,15.1122578 17.9050797,14.4123144 18.4099628,13.6629296 C18.8997999,12.9131865 19.583685,12.1303629 20.2839298,11.3327307 C21.3430143,10.1265494 23.9657083,7.24305976 24.8451939,5.5154739 C26.3278406,2.240871 23.0046629,2.0776185 20.1370504,1.06812844 L18.9144878,1.76783298 L19.6648866,2.46885113 C15.4777472,3.16927223 13.4088963,3.85345164 8.26059197,5.62952367 L8.84667686,7.12912939 L7.0875864,8.87200159 C7.03910428,8.82339603 6.77794539,8.80751273 6.24058149,8.46488555 L6.24058149,11.3484946 C3.94269413,12.3590595 1.95576129,14.1020511 3.50301099,15.6173013 C3.66565312,15.74819 3.89468951,15.8778842 4.04133014,15.8949619 L4.04133014,15.8949619 C6.85950527,17.4920175 14.5328228,15.3243547 14.5177765,15.3243547 Z M30.9242124,16.6304937 L31.288784,16.6304937 C31.3666421,16.6304937 31.4256327,16.6227311 31.4690994,16.6091168 C31.5149545,16.5923974 31.5475545,16.5640941 31.5691685,16.5314913 C31.5909019,16.4947088 31.6041569,16.4586427 31.6041569,16.4170832 C31.6041569,16.3564159 31.5807517,16.3062579 31.537882,16.2674451 C31.4938182,16.2289905 31.4255133,16.2097633 31.3310567,16.2097633 L30.9242124,16.2097633 L30.9242124,16.6304937 Z M30.7529725,17.3567103 L30.7529725,16.0652605 L31.3236529,16.0652605 C31.4372158,16.0652605 31.5258211,16.0768446 31.583737,16.0979826 C31.6440412,16.1237782 31.6900157,16.1624715 31.7253622,16.2234972 C31.7629777,16.2812983 31.7799345,16.345429 31.7799345,16.4169639 C31.7799345,16.5088008 31.7494839,16.5864263 31.6921651,16.6496015 C31.6323386,16.7102689 31.5419421,16.7501565 31.4187066,16.7691449 C31.464084,16.7904024 31.4981171,16.810585 31.5216417,16.8330367 C31.5692879,16.8803285 31.6182478,16.9352635 31.6608786,17.0040516 L31.8852579,17.3563521 L31.6712676,17.3563521 L31.5032518,17.0899174 C31.4530978,17.0095451 31.4096311,16.9523411 31.3797775,16.9098261 C31.3468191,16.8689831 31.3188762,16.8407991 31.2922469,16.8236021 C31.2663341,16.8073604 31.2420929,16.7938656 31.2155829,16.7876555 C31.1958795,16.7858641 31.1651902,16.7827591 31.1206487,16.7827591 L30.9239736,16.7827591 L30.9239736,17.3563521 L30.7529725,17.3563521 L30.7529725,17.3567103 Z M31.2651399,17.9977777 C31.942696,17.9977777 32.4933149,17.4465171 32.4933149,16.7705779 C32.4933149,16.0929668 31.942696,15.5421838 31.2651399,15.5421838 C30.5891362,15.5421838 30.038995,16.0929667 30.038995,16.7705779 C30.038995,17.4465171 30.5891362,17.9977777 31.2651399,17.9977777 Z M30.2293412,16.7706973 C30.2293412,16.1990151 30.6931459,15.7345756 31.2652593,15.7345756 C31.8367756,15.7345756 32.3015357,16.1988956 32.3015357,16.7706973 C32.3015357,17.3404687 31.8367756,17.8050276 31.2652593,17.8050276 C30.6930265,17.8049082 30.2293412,17.3403493 30.2293412,16.7706973 L30.2293412,16.7706973 Z M41.8910928,11.3236545 L41.8910928,18.2793792 C42.3744815,18.2793792 42.9139949,17.841213 42.9139949,17.3576657 L42.9139949,16.9933034 L43.493512,16.9933034 C43.8806528,16.9735984 44.3276202,16.4296227 44.3276202,16.1581722 C44.3276202,15.5198515 44.3276202,15.2491176 44.3276202,14.610797 C44.3276202,14.3198804 43.9991117,14.1090973 43.8431568,13.9923007 C43.9989924,13.8566352 44.3276202,13.6248334 44.3276202,13.3335586 C44.3276202,12.4843354 44.3276202,12.1937771 44.3276202,11.323774 L41.8910928,11.3237739 L41.8910928,11.3236545 Z M43.3227496,13.6248333 C43.3227496,13.7401968 43.226263,13.9347383 43.1095953,14.05046 C43.0912055,14.0712397 43.0328119,14.1289215 43.0328119,14.1289215 C43.0233782,14.136684 43.0134668,14.1474321 42.9936441,14.1474321 L43.3227496,14.1474321 L43.3227496,16.1582915 L42.9165025,16.1582915 C42.9165025,14.804383 42.9165025,13.5277416 42.9165025,12.1744302 L43.3227496,12.1744302 L43.3227496,13.6248333 Z M47.1895007,15.8292788 L47.1895007,12.7148234 L44.7337478,12.7148234 L44.7337478,16.9710906 L45.9523697,16.9710906 C46.1459401,16.9518634 46.3790366,16.873999 46.570577,16.73905 C46.6883194,16.6615438 46.7850449,16.584396 46.8811732,16.4876626 C47.0551597,16.2938377 47.1895007,16.0617971 47.1895007,15.8292788 Z M46.2230817,16.1775188 L45.7012416,16.1775188 L45.7012416,13.5276223 L46.2230817,13.5276223 L46.2230817,16.1775188 Z M44.4821421,11.3236545 L44.4821421,12.1743108 L47.4268962,12.1743108 L47.4268962,17.3577851 L47.4268962,18.2794986 C47.7562405,18.2794986 48.4680686,17.9615922 48.4680686,17.3009393 L48.4680686,12.1744302 C48.67979,12.1744302 48.8548512,11.5549786 48.8548512,11.3237739 L44.4821421,11.3237739 L44.4821421,11.3236545 Z M53.4577908,17.4776867 L53.4577908,16.8274237 L55.5228205,16.8274237 C55.8218336,16.8274237 56.0913515,16.3178419 56.2504112,16.0419728 L53.4576714,16.0419728 L53.4576714,15.4911899 L55.0105336,15.4911899 C55.4518885,15.4911899 56.1698067,14.8808144 56.1901071,14.5664907 L56.1901071,11.3236545 L49.5450653,11.3236545 L49.5450653,15.4911898 L52.2182716,15.4911898 L52.2182716,16.0419727 L49.5450653,16.0419727 L49.5450653,16.8274236 L52.2182716,16.8274236 L52.2182716,17.4776866 L49.4670878,17.4776866 L49.4670878,18.282723 L55.6987177,18.282723 C55.9550999,18.282723 56.1901071,17.7730218 56.3871405,17.4776866 L53.4577908,17.4776867 Z M53.4577908,13.8006253 L53.9885869,13.8006253 C54.0666837,13.8006253 54.1462136,13.7806815 54.2240717,13.7207307 C54.3223496,13.6625713 54.7943938,13.0720202 54.8538622,13.01195 L53.4577908,13.01195 L53.4577908,12.1088666 L54.9716046,12.1088666 L54.9716046,14.7050224 L53.4577908,14.7050224 L53.4577908,13.8006253 Z M52.2185102,14.7050224 L50.7442226,14.7050224 L50.7442226,13.8006253 L52.2185102,13.8006253 L52.2185102,14.7050224 Z M52.2185102,13.01195 L50.7442226,13.01195 L50.7442226,12.1088666 L51.4716938,12.1088666 L52.2185102,12.1088666 L52.2185102,13.01195 Z M58.3655948,17.3813117 L58.3655948,15.4214463 L62.6136355,15.4214463 C62.996955,15.4214463 63.6875274,14.7853947 63.7054395,14.4670106 L63.7054395,11.3236545 L57.1113875,11.3236545 L57.1113875,17.3112098 C57.1113875,17.789383 57.3989368,18.2859475 57.9370172,18.2859475 C58.3543698,18.2859475 62.5339861,18.2859475 62.9714003,18.2859475 C63.3503016,18.2859475 63.8063444,17.6802296 63.8852772,17.3811922 L58.3655948,17.3811922 L58.3655948,17.3813117 Z M62.4625765,14.5263643 L61.0613703,14.5263643 L61.0613703,12.2176618 L62.4625765,12.2176618 L62.4625765,14.5263643 Z M58.3745509,12.2176617 L59.847525,12.2176617 L59.847525,14.5263642 L58.3745509,14.5263642 L58.3745509,12.2176617 Z M65.9642784,17.3813117 L65.9642784,15.4214463 L70.2129161,15.4214463 C70.5979075,15.4214463 71.2870468,14.7853947 71.3079443,14.4670106 L71.3079443,11.3236546 L64.7128177,11.3236546 L64.7128177,17.3112099 C64.7128177,17.7893832 65.0014418,18.2859476 65.5382085,18.2859476 C65.9567553,18.2859476 70.1337445,18.2859476 70.5711586,18.2859476 C70.9507763,18.2859476 71.4074162,17.6802297 71.4870656,17.3811923 L65.9642784,17.3811922 L65.9642784,17.3813117 Z M70.064126,14.5263643 L68.661845,14.5263643 L68.661845,12.2176618 L70.064126,12.2176618 L70.064126,14.5263643 Z M65.9766975,12.2176617 L67.4474028,12.2176617 L67.4474028,14.5263643 L65.9766975,14.5263643 L65.9766975,12.2176617 Z M75.8506991,15.9378352 L75.8506991,15.7196478 L76.3453127,15.7196478 L76.3453127,15.9075016 L79.3403402,15.9075016 C79.3403402,15.9075016 79.2672588,16.3106767 78.6137049,16.3106767 C77.9601509,16.3106767 76.377077,16.3106767 76.377077,16.3106767 C76.377077,16.3106767 76.377077,17.0613752 76.377077,17.3928959 C76.377077,18.2136963 75.8506991,18.3119822 75.8506991,18.3119822 L75.8506991,16.3414881 L72.2829612,16.3414879 L72.2829612,15.9378352 L75.8506991,15.9378352 Z M73.6896605,16.9692992 L74.2230837,16.9692992 C74.2230837,16.9692992 73.6672107,17.68429 73.500389,17.8719049 C73.333448,18.0579673 73.1105016,18.3554522 72.7886804,18.3554522 C72.6088426,18.3554522 72.5492549,18.3597515 72.5492549,18.3597515 L73.6896605,16.9692992 Z M78.2591641,16.9692992 L77.7255021,16.9692992 C77.7255021,16.9692992 78.2811364,17.68429 78.4478386,17.8719049 C78.6147796,18.0579673 78.8373677,18.3554522 79.1591889,18.3554522 C79.3390267,18.3554522 79.3988533,18.3597515 79.3988533,18.3597515 L78.2591641,16.9692992 Z M78.6137049,12.0015045 C79.2506601,12.0015045 79.3721045,11.5968964 79.3721045,11.5968964 L76.3842419,11.5968964 L76.6015757,11.3168474 L76.1101863,11.3168474 L75.8603717,11.6283049 L73.8511085,11.6283049 L74.0990124,11.3168474 L73.5869643,11.3168474 L72.3141283,12.971107 L72.8588959,12.971107 L72.8588959,15.2340702 C72.8588959,15.2340702 72.9149012,15.2406385 72.9872662,15.2340702 C73.778027,15.2340702 73.8446602,15.1304102 73.8446602,15.1304102 C73.8446602,15.1304102 77.9781826,15.1304102 78.613705,15.1304102 C79.247675,15.1304102 79.3095315,14.7515977 79.3095315,14.7515977 L76.3423276,14.7515977 L76.3423276,14.0904671 C76.3423276,14.0904671 77.9890493,14.0904671 78.6138245,14.0904671 C79.2390772,14.0904671 79.3404598,13.6894417 79.3404598,13.6894417 L76.342447,13.6894417 L76.342447,13.0369096 C76.342447,13.0369096 77.9766303,13.0369096 78.613944,13.0369096 C79.2391967,13.0369096 79.3405793,12.6284799 79.3405793,12.6284799 L76.3425665,12.6284799 L76.3425665,12.0015045 C76.3422079,12.0015045 78.1710364,12.0015045 78.6137049,12.0015045 Z M75.8506991,14.7515977 L73.3199541,14.7515977 L73.3199541,14.121159 L75.8506991,14.121159 L75.8506991,14.7515977 Z M75.8506991,13.7206113 L73.3199541,13.7206113 L73.3199541,13.0996072 L75.8506991,13.0996072 L75.8506991,13.7206113 Z M75.8506991,12.6586941 L73.3199541,12.6586941 L73.3179241,12.4339384 L73.4465332,12.2502645 L73.6170566,12.0325547 L75.8506991,12.0325547 L75.8506991,12.6586941 Z M80.7334262,11.3475393 L80.7334262,18.3747989 L86.6456231,18.3747989 C87.0906798,18.3747989 87.2598897,17.9527549 87.2379176,17.515783 L87.2379176,11.3475393 L80.7334262,11.3475393 Z M86.7596637,17.4643112 C86.7596637,17.7189229 86.7036584,17.9176442 86.369657,17.9176442 L81.17502,17.9176442 L81.17502,11.7556106 L86.7596637,11.7556106 L86.7596637,17.4643112 Z M83.4895059,14.3360026 L81.9949178,17.0315191 C81.9949178,17.0315191 82.4959798,17.1259834 82.7250162,16.6501986 L83.9958221,14.3424514 L83.4895059,14.3360026 Z M85.252776,16.4686743 C85.252776,16.6147297 85.2004726,16.68722 85.0957463,16.68722 L84.5967143,16.68722 L84.5967143,17.0834685 L85.2311619,17.0834685 C85.6228405,17.0834685 85.7514496,16.9409958 85.7307909,16.5035461 L85.7307909,13.8775343 C86.2230162,13.8775343 86.2535863,13.4659996 86.2535863,13.4659996 L85.7307909,13.4711348 L85.7307909,12.5654241 L85.2526565,12.5654241 L85.2526565,13.4711348 L81.8906692,13.4711348 L81.8906692,13.9079874 L85.2526565,13.9079874 L85.2526565,16.4686743 L85.252776,16.4686743 Z" id="Shape"></path>
            </g>
        </g>
    </g>
</svg>