<?xml version="1.0" encoding="UTF-8"?>
<svg width="124px" height="48px" viewBox="0 0 124 48" version="1.1" xmlns="http://www.w3.org/2000/svg" xmlns:xlink="http://www.w3.org/1999/xlink">
    <!-- Generator: Sketch 57.1 (83088) - https://sketch.com -->
    <title>Logo/New/BMW_Grey</title>
    <desc>Created with Sketch.</desc>
    <g id="Logo/New/BMW_Grey" stroke="none" stroke-width="1" fill="none" fill-rule="evenodd">
        <g id="Group-13" transform="translate(0.000000, 6.000000)" fill="#6E7274">
            <path d="M18.5,36.3599 C13.729516,36.3599 9.244524,34.502056 5.87116,31.12884 C2.497944,27.755328 0.6401,23.270484 0.6401,18.5 C0.6401,13.729516 2.497944,9.244524 5.87116,5.87116 C9.244524,2.497796 13.729516,0.6401 18.5,0.6401 C23.270484,0.6401 27.755476,2.497796 31.128692,5.87116 C34.502056,9.244524 36.3599,13.729516 36.3599,18.5 C36.3599,28.34792 28.34792,36.3599 18.5,36.3599 M31.581424,5.418576 C28.087144,1.924296 23.441424,0 18.5,0 C8.298952,0 0,8.298952 0,18.5 C0,23.441424 1.924296,28.087144 5.418576,31.581424 C8.912856,35.075556 13.558576,37 18.5,37 C23.441424,37 28.087144,35.075556 31.581424,31.581424 C35.075556,28.087144 37,23.441424 37,18.5 C37,13.558576 35.075556,8.912856 31.581424,5.418576" id="Fill-1"></path>
            <path d="M28.6918661,12.7191185 L27.8734261,11.7002865 L29.5040901,9.31600652 L29.4944701,9.30401852 L26.8232181,10.4032145 L25.9967861,9.39089452 L28.8244741,5.75364652 L29.5218501,6.61485852 L27.7510449,8.93120652 L30.4570769,7.76955452 L31.2052021,8.69337052 L29.5063101,11.0988145 L32.1401181,9.84836252 L32.8374941,10.7095745 L28.6918661,12.7191185 Z M18.4999941,29.4380865 C12.4590781,29.4380865 7.56177288,24.5409145 7.56177288,18.4999985 C7.56177288,12.4590825 12.4590781,7.56176252 18.4999941,7.56176252 C24.5407769,7.56176252 29.4380969,12.4590825 29.4380969,18.4999985 C29.4380969,24.5409145 24.5409101,29.4380865 18.4999941,29.4380865 L18.4999941,29.4380865 Z M4.63032208,9.72581852 L6.82960208,7.10488652 C7.28485008,6.56231852 7.92125008,6.12912252 8.52597808,6.63661452 C8.71290208,6.79334652 8.79193408,6.84499852 9.01867008,7.25836252 C9.07209808,7.40503052 9.11309408,7.67083852 9.01260208,7.93131852 C9.53874208,7.60512652 10.0992181,7.71124252 10.4618181,8.06377852 C11.0188901,8.60531052 10.9368981,9.23135052 10.4070729,9.86301452 L8.08760208,12.6269145 L4.63032208,9.72581852 Z M15.9974769,2.31101852 L17.3531421,2.31101852 L18.5799289,5.52143452 L19.8068341,2.31101852 L21.1626769,2.31101852 L21.1626769,6.81821052 L20.2601581,6.81821052 L20.2601581,3.67113852 L19.0729021,6.81821052 L18.0870741,6.81821052 L16.8996701,3.67113852 L16.8996701,6.81821052 L15.9974769,6.81821052 L15.9974769,2.31101852 Z M18.4999941,1.37610252 C9.04279408,1.37610252 1.37609808,9.04279852 1.37609808,18.4999985 C1.37609808,27.9570505 9.04279408,35.6238945 18.4999941,35.6238945 C27.9570609,35.6238945 35.6237421,27.9570505 35.6237421,18.4999985 C35.6237421,9.04279852 27.9570609,1.37610252 18.4999941,1.37610252 L18.4999941,1.37610252 Z" id="Fill-3"></path>
            <path d="M18.5,8.265504 L18.5,18.5 L8.265504,18.5 C8.265504,12.847732 12.847732,8.265504 18.5,8.265504" id="Fill-5"></path>
            <path d="M28.734345,18.5 C28.734345,24.152268 24.152265,28.734496 18.499997,28.734496 L18.499997,18.5 L28.734345,18.5 Z" id="Fill-7"></path>
            <path d="M8.11247348,8.45701452 L6.80637348,10.0135305 L5.98926548,9.32784652 L7.31016548,7.75357052 C7.46319748,7.57108652 7.80907348,7.57863452 8.03151748,7.76526252 C8.27616148,7.97039052 8.27675348,8.26135852 8.11247348,8.45701452" id="Fill-9"></path>
            <path d="M9.63406296,9.589808 L8.25707096,11.230832 L7.39349096,10.506224 L8.78173096,8.85188 C8.93846296,8.664956 9.28789096,8.61064 9.52365496,8.808516 C9.79049896,9.032292 9.81699096,9.371804 9.63406296,9.589808" id="Fill-11"></path>
        </g>
    </g>
</svg>