<?xml version="1.0" encoding="UTF-8"?>
<svg width="124px" height="48px" viewBox="0 0 124 48" version="1.1" xmlns="http://www.w3.org/2000/svg" xmlns:xlink="http://www.w3.org/1999/xlink">
    <!-- Generator: Sketch 57.1 (83088) - https://sketch.com -->
    <title>Logo/New/CapitalOne_Grey</title>
    <desc>Created with Sketch.</desc>
    <g id="Logo/New/CapitalOne_Grey" stroke="none" stroke-width="1" fill="none" fill-rule="evenodd">
        <g id="Group-2" transform="translate(0.000000, 8.000000)" fill="#6E7274" fill-rule="nonzero">
            <g id="Logo_Capital-one_Grey">
                <g id="Capital_One_logo" transform="translate(0.000000, 0.958333)">
                    <path d="M56.855858,21.6942687 C56.8511373,21.6989776 56.8464167,21.6989776 56.8464167,21.7036864 C53.2775833,24.2229358 49.0525756,26.8693248 44.5065617,29.6475625 L44.3271759,29.7511578 C44.2658071,29.7935377 44.2516451,29.8782975 44.2941312,29.9395129 C44.3366173,30.0007283 44.4215895,30.0148549 44.4829583,29.972475 L44.6340201,29.8924241 C48.4908148,27.8864423 52.9188117,25.5037504 57.3751327,23.0598431 C57.3987361,23.0457165 57.4223395,23.0315898 57.4459429,23.0221721 C57.2004676,22.6172086 56.9974784,22.1745742 56.855858,21.6942687 L56.855858,21.6942687 Z M80.2704259,2.78812626 C74.6480972,-3.39933853 38.4640926,2.16655445 23.0793997,5.5192751 L22.7206281,5.59461714 C22.6450972,5.60874377 22.5978904,5.67937693 22.6120525,5.75001009 C22.6262145,5.82535213 22.6970247,5.8724409 22.7678349,5.85831427 L23.1218858,5.78768111 C35.8677191,3.52271112 62.3790525,0.386598828 68.0816327,6.02783385 C69.8235633,7.75128295 69.4081435,9.96445529 67.3876929,12.5825911 C68.4734491,13.2795049 69.2476404,14.3766733 69.5969707,15.7469566 C77.4805046,10.5295206 82.7723858,5.54281949 80.2704259,2.78812626 L80.2704259,2.78812626 Z" id="Shape"></path>
                    <g id="Group" transform="translate(0.000000, 12.243081)">
                        <path d="M59.1312253,7.82662498 C59.2020355,10.0021263 60.5851944,11.7867908 62.3837731,11.7867908 C65.8723549,11.7867908 67.3593688,7.5111302 67.2555139,4.65755055 C67.179983,2.47734036 65.7637793,0.697380827 63.9652006,0.697380827 C60.9675694,0.692675853 59.0273704,4.94950095 59.1312253,7.82662498 L59.1312253,7.82662498 Z M57.2901605,7.70890305 C57.1627022,3.99359885 60.0800818,0.193534858 64.3192515,0.193534858 C67.151659,0.193534858 69.0068858,2.07708578 69.1107407,4.96362758 C69.2476404,8.8814135 66.519088,12.4789958 62.0863704,12.4789958 C59.2445216,12.4789958 57.3892948,10.6001537 57.2901605,7.70890305 L57.2901605,7.70890305 Z" id="Shape"></path>
                        <path d="M17.1422017,6.72945657 C16.99114,6.7859631 16.7975921,6.84246963 16.5521168,6.89426728 C16.3113622,6.9507738 15.8676184,7.02611584 15.225606,7.12971114 C14.7818622,7.2003443 14.4750181,7.28981297 14.3003529,7.41695266 C14.1351292,7.53938347 14.0359949,7.68535867 14.0076708,7.86900488 C13.9746261,8.06206885 14.0359949,8.21275292 14.2012187,8.33518373 C14.3711631,8.45290567 14.6544039,8.51412107 15.0556616,8.51412107 C15.357785,8.51412107 15.6504671,8.4670323 15.9337079,8.37285475 C16.2216693,8.27867721 16.4671446,8.15153752 16.6512511,7.99143569 C16.7881508,7.87371376 16.887285,7.72302968 16.9628159,7.53938347 C17.0100227,7.41695266 17.0713915,7.14854665 17.1422017,6.72945657 L17.1422017,6.72945657 Z M20.8243313,4.44565107 C20.8101693,4.78469024 20.7488005,5.08605839 20.6591076,5.60874377 L20.0359779,9.09802186 C19.9840505,9.40880776 20.0973468,9.64896051 20.3853082,9.81848009 L20.3664255,9.95503753 L16.7975921,9.95032865 L16.7645474,9.06505972 C16.2452727,9.37584562 15.6174224,9.63954275 15.0509409,9.7949357 C14.4844594,9.9409109 14.0265535,10.0021263 13.3420551,10.0021263 C12.1902094,10.0021263 11.5293144,9.88440437 11.0714085,9.4841498 C10.6087819,9.07447747 10.3821894,8.80136259 10.4057927,8.23629731 C10.4246755,7.91138478 10.5946199,7.4922947 10.8353745,7.2003443 C11.0808498,6.90368503 11.4207387,6.71062106 11.784231,6.5363926 C12.152444,6.36216414 12.5867465,6.23502445 13.2145968,6.13613803 C13.8471677,6.03254273 14.725214,5.9336563 15.9006631,5.83476988 C16.5190721,5.78297223 16.8967264,5.64170591 17.0713915,5.57107275 C17.3168668,5.4768952 17.4160011,5.36859103 17.4490458,5.17081818 C17.5151353,4.8129435 17.401839,4.6057529 16.9203298,4.51157536 C15.6363051,4.25729598 13.2240381,4.67638606 11.9824995,4.98246309 L12.6575566,3.16483644 C14.2956323,2.9246837 15.8298529,2.77399963 17.4490458,2.77399963 C20.0312573,2.77399963 20.8526554,3.50387561 20.8243313,4.44565107 L20.8243313,4.44565107 Z" id="Shape"></path>
                        <path d="M31.1720597,9.95032865 L32.4088776,2.97648135 L35.8266492,2.97648135 L34.5898313,9.95032865 L31.1720597,9.95032865 Z M32.5977048,1.36133643 C32.7015597,0.786853399 33.6079301,0.325383422 34.6181554,0.325383422 C35.6331014,0.325383422 36.374248,0.791562277 36.2751137,1.36133643 C36.1665381,1.93581946 35.2648884,2.40199832 34.2452218,2.40199832 C33.2349965,2.40199832 32.4985705,1.93581946 32.5977048,1.36133643 L32.5977048,1.36133643 Z" id="Shape"></path>
                        <path d="M47.9620988,6.7435832 C47.8063164,6.79538085 47.6080478,6.85188738 47.3672932,6.90839391 C47.1265386,6.96490044 46.6827948,7.0355336 46.0407824,7.1391289 C45.6017593,7.20976206 45.2901944,7.29923073 45.12025,7.42637041 C44.9550262,7.54409235 44.8606127,7.69477642 44.8228472,7.87371376 C44.7850818,8.06677773 44.855892,8.22217068 45.0163951,8.33989261 C45.1910602,8.45761455 45.4743009,8.51412107 45.8755586,8.51412107 C46.1729614,8.51412107 46.4656435,8.47174118 46.7536049,8.38227251 C47.046287,8.28338608 47.2870417,8.16095527 47.4758688,8.00085345 C47.6080478,7.88313151 47.7071821,7.72773856 47.7779923,7.54880122 C47.8251991,7.43107929 47.8865679,7.16267328 47.9620988,6.7435832 L47.9620988,6.7435832 Z M51.6442284,4.45506883 C51.6300664,4.79881687 51.5686975,5.10018502 51.474284,5.61816152 L50.855875,9.11214849 C50.8039475,9.41822552 50.9172438,9.66308714 51.2052052,9.83260672 L51.1863225,9.95503753 L47.6174892,9.95974641 L47.5891651,9.0697686 C47.0698904,9.38526338 46.4373194,9.64896051 45.8755586,9.79964458 C45.3090772,9.95032865 44.8511713,10.0115441 44.1572315,10.0115441 C43.0053858,10.0115441 42.3492114,9.898531 41.8913056,9.49356755 C41.4239583,9.07918635 41.2020864,8.81078034 41.2256898,8.24571507 C41.2398519,7.91609365 41.4097963,7.49700357 41.6552716,7.20976206 C41.9007469,6.90839391 42.2406358,6.72003882 42.6088488,6.54581036 C42.9770617,6.37158189 43.4113642,6.24444221 44.0344938,6.14084691 C44.6670648,6.04196048 45.5498318,5.93836518 46.7252809,5.83947876 C47.3389691,5.78768111 47.7166235,5.65112367 47.8912886,5.58049051 C48.1414846,5.48631296 48.2358981,5.37800878 48.2736636,5.17552706 C48.3350324,4.82236126 48.2264568,4.61517066 47.7496682,4.51628423 C46.4562022,4.26200486 44.0533765,4.68109494 42.811838,4.98717196 L43.4821744,3.16954532 C45.1249707,2.92939258 46.6544707,2.7787085 48.2736636,2.7787085 C50.8464336,2.78341738 51.6678318,3.51800224 51.6442284,4.45506883 L51.6442284,4.45506883 Z" id="Shape"></path>
                        <path d="M9.9431662,7.44520592 C8.82908596,7.66652316 8.20595633,7.75128295 7.10603812,7.75128295 C5.47268318,7.75128295 4.17449645,6.94135605 4.24530664,5.4580597 C4.2972341,4.46919546 5.4679625,2.38787169 8.44671096,2.38787169 C9.38612608,2.38787169 10.1178313,2.55268239 11.1044532,3.11303879 L11.5387557,0.692675853 C10.1980829,0.18882598 9.31059522,0.113483943 8.15874954,0.122901698 C4.25002731,0.165281594 0.501808179,1.93581946 0.0344609568,5.53811061 C-0.437606944,9.19690828 4.04231744,10.1151394 6.0297233,10.1057931 C7.1768483,10.1010127 8.37118009,10.053924 9.48526034,9.9409109 L9.9431662,7.44520592 Z" id="Path"></path>
                        <path d="M37.7102002,2.93881033 L37.9556755,1.51672938 L41.5292295,0.739764626 L41.1468545,2.93410145 L42.8982264,2.93410145 L42.5677789,4.33734689 L40.8683344,4.33263802 L39.8345057,9.9409109 C39.8345057,9.9409109 36.3931307,9.91736651 36.3789687,9.9409109 L37.4080767,4.34676465 L36.1146106,4.34676465 L36.3789687,2.93410145 L37.7102002,2.93410145 L37.7102002,2.93881033 Z" id="Path"></path>
                        <polygon id="Path" points="56.7771659 0.315772166 55.1154869 9.94542627 51.6363464 9.95013515 53.3877183 0.22159462"></polygon>
                        <path d="M26.6496492,4.61046178 C26.2011847,4.61046178 25.7952063,4.74701922 25.4364347,5.01542523 C25.0776631,5.28854011 24.8510705,5.68408581 24.7613776,6.20677119 C24.652802,6.81421636 24.7188915,7.25214195 24.9596461,7.52054796 C25.2051215,7.78895397 25.5544517,7.92551141 26.0170782,7.92551141 C26.3286431,7.92551141 26.6496492,7.86900488 26.8856832,7.75128295 C27.1783653,7.59589 27.3813545,7.43578817 27.5560196,7.17679992 C27.7448468,6.90839391 27.8675844,6.60702576 27.9336739,6.25856884 C28.0328082,5.70763019 27.947836,5.29795787 27.6929193,5.02484298 C27.4427233,4.7517281 27.0981137,4.61046178 26.6496492,4.61046178 L26.6496492,4.61046178 Z M20.4277943,12.356565 L22.094194,3.01415237 L25.0965458,3.01415237 L24.8652326,4.20549833 C25.1248699,3.84762365 25.5402897,3.55567326 26.1162125,3.32022939 C26.696856,3.08478553 27.3483097,2.91055707 28.0564116,2.91055707 C28.8400443,2.91055707 29.3215535,2.95293696 29.9069177,3.25430511 C30.4875613,3.56038214 30.8982603,4.00301661 31.1154116,4.57749964 C31.3420042,5.14256492 31.389211,5.78297223 31.2664733,6.4751772 C31.0634841,7.62885214 30.5017233,8.53295658 29.5764702,9.20161716 C28.6606585,9.87027774 27.8345397,10.0445062 26.6590906,10.0492151 C26.2436708,10.0492151 25.8943406,10.0068352 25.6063792,9.93620202 C25.3231384,9.86085998 25.0965458,9.77139132 24.9266014,9.66308714 C24.7613776,9.55478296 24.5867125,9.39939001 24.3648406,9.15452839 L23.8078005,12.356565 L20.4277943,12.356565 Z" id="Shape"></path>
                        <path d="M82.4655417,5.46747745 C82.446659,4.90712105 82.1634182,4.52570199 81.5827747,4.52570199 C80.180733,4.52570199 78.6889985,7.26626858 78.4340818,8.36815802 C80.7330525,8.37285475 82.5221898,7.00728033 82.4655417,5.46747745 L82.4655417,5.46747745 Z M82.7676651,9.76197356 L83.0367438,9.94561978 C82.3522454,11.3347386 80.9596451,12.4507425 79.3262901,12.4507425 C77.990338,12.4507425 76.8904198,11.5607647 76.8337716,9.89382213 C76.725196,6.90368503 79.534,4.13015629 81.8329707,4.13015629 C82.8195926,4.13015629 83.7354043,4.55866413 83.7731698,5.61816152 C83.858142,7.99614457 80.5111806,8.72131167 78.3066235,8.77310933 C78.2358133,9.02267982 78.2074892,9.27225032 78.2216512,9.64896051 C78.2594167,10.6331159 78.8542222,11.4618783 80.0910401,11.4618783 C81.1579136,11.4618783 82.224787,10.6048626 82.7676651,9.76197356 L82.7676651,9.76197356 Z" id="Shape"></path>
                        <path d="M69.0588133,5.39213541 C69.2948472,5.35917327 69.6772222,5.31679338 69.842446,5.31679338 C70.092642,5.31679338 70.3286759,5.36388215 70.342838,5.61345265 C70.3475586,5.75942784 70.0832006,6.81892524 70.0265525,7.06378686 L69.4931157,9.40880776 C69.2759645,10.3694187 69.0446512,11.3724096 68.8369414,12.1682099 L70.2059383,12.1682099 L70.975409,8.45290567 C73.3215864,6.01370722 74.2279568,5.21790695 74.7802762,5.21790695 C75.0304722,5.21790695 75.2004167,5.34975552 75.2145787,5.64641479 C75.2287407,6.07492262 74.959662,7.04966023 74.8699691,7.33219287 L74.0863364,10.0397973 C73.9069506,10.6472425 73.7747716,11.1981811 73.7889336,11.589018 C73.812537,12.1823365 74.1713086,12.4460336 74.709466,12.4460336 C75.71025,12.4460336 76.4372346,11.4053717 77.0698056,10.3835454 L76.8856991,10.0492151 C76.6307824,10.4588874 76.0359769,11.358283 75.5686296,11.358283 C75.4222886,11.358283 75.2806682,11.2593965 75.2759475,11.0145349 C75.2617855,10.6990401 75.3939645,10.2234435 75.4883781,9.90794876 L76.3617037,6.73416545 C76.5977377,5.85831427 76.7063133,5.29795787 76.7015926,4.99658972 C76.6779892,4.40327118 76.3333796,4.12544742 75.7999429,4.12544742 C74.8982932,4.12544742 73.7039614,4.78469024 71.1689568,7.69006754 L71.1311914,7.69006754 L71.4521975,6.27269547 C71.6268627,5.49573071 71.7968071,4.68580382 71.9573102,4.12544742 C71.0792639,4.4409422 69.8235633,4.79410799 69.0493719,4.94479207 L69.0588133,5.39213541 Z" id="Path"></path>
                    </g>
                </g>
            </g>
        </g>
    </g>
</svg>