<?xml version="1.0" encoding="UTF-8"?>
<svg width="124px" height="48px" viewBox="0 0 124 48" version="1.1" xmlns="http://www.w3.org/2000/svg" xmlns:xlink="http://www.w3.org/1999/xlink">
    <!-- Generator: Sketch 57.1 (83088) - https://sketch.com -->
    <title>Logo/New/Emaar_Grey</title>
    <desc>Created with Sketch.</desc>
    <defs>
        <polygon id="path-1" points="0.0667492343 0.0407367513 16.7978659 0.0407367513 16.7978659 18.9992932 0.0667492343 18.9992932"></polygon>
        <polygon id="path-3" points="0 0.0390538125 13.7961559 0.0390538125 13.7961559 18.9581796 0 18.9581796"></polygon>
    </defs>
    <g id="Logo/New/Emaar_Grey" stroke="none" stroke-width="1" fill="none" fill-rule="evenodd">
        <g id="Group-19" transform="translate(0.000000, 14.000000)">
            <path d="M18.5852042,7.04844299 C18.1450272,11.283542 17.1981395,15.4590781 17.0899962,19.7737989 L15,19.7737989 C15.1717197,19.1042803 15.3928644,18.4605518 15.4961497,17.7994252 C15.8009364,15.8481808 16.0636908,13.8903865 16.3346828,11.934025 C16.7062142,9.25226642 17.0686633,6.56927974 17.4374488,3.88711179 C17.5536184,3.04381723 17.6657749,2.19949925 17.8079242,1.36009367 C17.8385507,1.17894909 17.9811224,0.877450813 18.0865199,0.871515002 C18.4356623,0.852274786 18.8509157,0.668674004 19.1005747,1.1459951 C19.7923117,2.46845291 20.5159425,3.77494543 21.2249993,5.08880654 C23.0668151,8.50189801 24.9073636,11.9153988 26.7493905,15.3280809 C26.8298644,15.4768856 26.9206879,15.6203685 27.0501641,15.8399935 C27.1933695,15.5972393 27.3093279,15.4144572 27.4117683,15.2249206 C29.9136385,10.5888474 32.4114955,5.95052259 34.924349,1.31997578 C35.0303801,1.12470805 35.2468779,0.925141986 35.4566168,0.857391865 C35.7949871,0.748091065 35.9861389,0.914703146 36.0393656,1.2954138 C36.6573878,5.71349951 37.2853371,10.1301524 37.9246922,14.5453726 C38.1171112,15.8749943 38.3361437,17.2015458 38.5784101,18.5235942 C38.653181,18.9329605 38.844544,19.3222678 39,19.771752 L35.0485448,19.771752 C35.0789601,19.3959538 35.1558432,19.0410332 35.1273289,18.6942999 C34.9944731,17.0842623 34.8666866,15.4725872 34.6725778,13.8688948 C34.4372816,11.9258377 34.1377754,9.98994448 33.8636152,8.05118572 C33.8431271,7.90729347 33.8019397,7.7660621 33.7389969,7.48196189 C33.5723464,7.7636059 33.4760312,7.91711826 33.3885872,8.07533833 C31.3167557,11.813876 29.2347857,15.5472966 27.1891452,19.299548 C26.9403311,19.7559914 26.6346995,19.8028639 26.1839616,19.8198526 C25.7353358,19.8366366 25.5374251,19.6503749 25.3473294,19.295045 C23.250363,15.3765908 21.1386114,11.4659146 19.0298169,7.55380567 C18.9351915,7.37839222 18.8287379,7.20891457 18.727776,7.03657136 C18.6802521,7.04046034 18.6327281,7.04434932 18.5852042,7.04844299" id="Fill-1" fill="#6E7274"></path>
            <g id="Group-5" transform="translate(81.000000, 0.820896)">
                <mask id="mask-2" fill="white">
                    <use xlink:href="#path-1"></use>
                </mask>
                <g id="Clip-4"></g>
                <path d="M3.53995976,5.1737 C3.53995976,6.38152796 3.5478378,7.58935591 3.53519146,8.79697957 C3.53125244,9.15675376 3.64113049,9.32571075 4.03565488,9.3150871 C4.8980939,9.29179677 5.76364268,9.33633441 6.62380122,9.28689355 C8.71853293,9.16656022 10.0070085,8.08825914 10.3347768,6.1055172 C10.6279232,4.33177527 9.93113049,2.53923763 8.02713049,1.70303333 C6.77617927,1.15387204 5.46241098,1.07807634 4.13122805,1.02557097 C3.6838378,1.00800108 3.5210939,1.14794731 3.5308378,1.6014957 C3.55654512,2.79175376 3.53954512,3.98282903 3.53995976,5.1737 M16.7978866,18.9973237 C15.4948988,18.9973237 14.3444963,19.0063129 13.1947159,18.9858828 C13.0487646,18.9836355 12.8853988,18.8498183 12.7643256,18.7401086 C10.1931793,16.4106677 7.75430122,13.9551731 5.52688659,11.3006892 C4.90638659,10.5611194 4.31470366,10.2044097 3.51902073,10.1770333 C3.71306951,13.094657 3.15227683,16.0290333 3.97864268,18.9521731 L0.0736182927,18.9521731 C0.0736182927,18.8861839 0.0566182927,18.8195817 0.0761060976,18.7656462 C0.43435,17.7741731 0.510020732,16.7526677 0.506081707,15.7048075 C0.49032561,11.3307215 0.528057317,6.95643118 0.496959756,2.58234516 C0.491154878,1.76432366 0.260410976,0.947527957 0.123581707,0.0692376344 C0.231179268,0.0622913978 0.409886585,0.0390010753 0.588386585,0.0407367513 C2.76417927,0.0639258065 4.94204512,0.0402268817 7.11472805,0.13297957 C8.76372805,0.20325914 10.3847402,0.516044086 11.7613256,1.51262473 C14.1950207,3.2745172 14.1444354,7.09372151 11.6796427,8.81597957 C10.667728,9.52286129 9.52292317,9.86996882 8.30555732,10.0182914 C8.14032561,10.0385172 7.97571585,10.0642591 7.62970366,10.1130871 C10.7224598,13.1097753 13.7086549,16.0037 16.7978866,18.9973237" id="Fill-3" fill="#6E7274" mask="url(#mask-2)"></path>
            </g>
            <path d="M48.5271435,5.73754994 C47.6224409,7.74434519 46.7763342,9.62157073 45.9011374,11.5632741 L51.202395,11.5632741 C50.3064195,9.61235961 49.4488845,7.74475457 48.5271435,5.73754994 M59,19.8066093 C57.692815,19.8066093 56.4544073,19.8211424 55.2172463,19.7871636 C55.0693023,19.7830698 54.8748141,19.5378494 54.7933618,19.3632475 C53.8643482,17.365254 52.9423994,15.3637808 52.0455927,13.3516635 C51.868143,12.953948 51.6564086,12.7867151 51.1992782,12.7932652 C49.4337161,12.819261 47.6673228,12.8196704 45.9017607,12.7930605 C45.4444226,12.7863057 45.2326881,12.9521058 45.0571085,13.3506401 C44.1763014,15.3510899 43.2541448,17.3339362 42.3762467,19.3356142 C42.2093941,19.7163403 41.999322,19.8412021 41.5966317,19.8182767 C41.0341535,19.7859354 40.4683508,19.810089 40,19.810089 C43.1143045,13.7383257 45.6927275,7.43628451 48.5776356,1.27384288 C48.7025153,1.00712989 48.8172135,0.831095217 49.1696194,0.821270026 C49.5571413,0.810626069 49.6699694,1.02821311 49.7956802,1.30249969 C52.0890201,6.30167965 54.3867235,11.298608 56.6794401,16.2979927 C57.2315289,17.5013739 57.8636155,18.6505118 58.8441601,19.5783783 C58.8892498,19.6209541 58.916262,19.6823616 59,19.8066093" id="Fill-6" fill="#6E7274"></path>
            <path d="M67.0011256,11.5581927 L72.3058806,11.5581927 C71.4083095,9.60899015 70.5504503,7.7457547 69.6270978,5.73944536 C68.7243289,7.73981887 67.8820634,9.60612458 67.0011256,11.5581927 M80,19.8059213 C78.7755859,19.8059213 77.5507559,19.8206585 76.3273813,19.7864763 C76.1791376,19.7825873 75.9828654,19.5402418 75.9019863,19.3664654 C74.9726042,17.3689575 74.0473804,15.369198 73.1562548,13.354906 C72.9653884,12.9234328 72.7217115,12.7873182 72.2588917,12.7934587 C70.475185,12.8178161 68.6908545,12.8114709 66.9071478,12.7975524 C66.5441274,12.7946868 66.3509739,12.9187251 66.2043935,13.2494939 C65.3041196,15.2785231 64.3724504,17.2940432 63.4788298,19.3257334 C63.3147845,19.6988717 63.1166411,19.8437877 62.7058001,19.8179976 C62.1433888,19.7829967 61.5768192,19.8094009 61.0293778,19.8094009 C61.0090021,19.7361241 60.9952796,19.7146323 61.0015171,19.7054216 C62.9846147,16.7197009 64.1169223,13.3319814 65.6469722,10.1327757 C67.0400058,7.22115045 68.3276262,4.26081052 69.6587009,1.32052959 C69.7811632,1.0497331 69.8811705,0.820282701 70.2737149,0.820895522 C70.657111,0.821510803 70.7729199,1.02926473 70.8995404,1.305383 C73.1945112,6.30273482 75.499462,11.2957883 77.7875716,16.2960057 C78.3605866,17.5480557 79.0392227,18.7231446 80,19.8059213" id="Fill-8" fill="#6E7274"></path>
            <g id="Group-12" transform="translate(0.000000, 0.820896)">
                <mask id="mask-4" fill="white">
                    <use xlink:href="#path-3"></use>
                </mask>
                <g id="Clip-11"></g>
                <path d="M0.0644205882,0.0499107527 L0.506655882,0.0499107527 C4.53824412,0.0499107527 8.57003824,0.0584913978 12.6018324,0.0390538125 C13.1050088,0.0366311828 13.2787735,0.189244086 13.2336853,0.674867742 C13.2011559,1.0276957 13.2273029,1.38603978 13.2273029,1.73539462 C13.1721265,1.75133011 13.1321853,1.77748065 13.1095382,1.76706129 C11.9187147,1.21912581 10.6521265,1.22055591 9.37750882,1.23342688 C7.61062647,1.25120108 5.84312647,1.24956667 4.07624412,1.22995376 C3.62906765,1.22505054 3.44747941,1.32107204 3.45406765,1.81813656 C3.48227353,3.97984624 3.47609706,6.14237312 3.45736176,8.3042871 C3.45386176,8.71186774 3.58295,8.82974946 3.98462647,8.82729785 C6.43792059,8.81279247 8.89142059,8.82014731 11.3447147,8.82035161 L12.0554206,8.82035161 C11.9250971,9.25959892 11.8530382,9.64225484 11.6885382,9.98037312 C11.6325382,10.0958032 11.3440971,10.1468785 11.1614794,10.1479 C8.82821471,10.158728 6.49495,10.1544376 4.16168529,10.1556634 C3.46683235,10.156072 3.46621471,10.1585237 3.46621471,10.8580505 C3.46600882,12.9862548 3.46868529,15.1142548 3.46333235,17.2422548 C3.46250882,17.5391043 3.46312647,17.7762978 3.87653824,17.7724161 C6.50050882,17.7470828 9.12550882,17.7664914 11.7482441,17.6972333 C12.4122147,17.6798677 13.0691853,17.3932333 13.7961559,17.2136527 C13.7133912,17.7816097 13.6298029,18.357943 13.5423029,18.9581796 L0.0393029412,18.9581796 C0.0226264706,18.9152763 -0.00702058824,18.8785022 0.00142058824,18.8558247 C0.476391176,17.5987602 0.432332353,16.2883731 0.42945,14.9775774 C0.420597059,10.8404806 0.447773529,6.70338387 0.414214706,2.5666957 C0.407626471,1.7490828 0.192891176,0.933104301 0.0644205882,0.0499107527" id="Fill-10" fill="#6E7274" mask="url(#mask-4)"></path>
            </g>
        </g>
    </g>
</svg>