<?xml version="1.0" encoding="UTF-8"?>
<svg width="124px" height="48px" viewBox="0 0 124 48" version="1.1" xmlns="http://www.w3.org/2000/svg" xmlns:xlink="http://www.w3.org/1999/xlink">
    <!-- Generator: Sketch 57.1 (83088) - https://sketch.com -->
    <title>Logo/New/Google_Grey</title>
    <desc>Created with Sketch.</desc>
    <g id="Logo/New/Google_Grey" stroke="none" stroke-width="1" fill="none" fill-rule="evenodd">
        <g id="Logo_Google_Grey" transform="translate(0.000000, 11.000000)" fill="#6E7274">
            <g id="logo_Google_Grey">
                <path d="M9.99470899,19.6527556 C4.56507937,19.6527556 0,15.2437 0,9.82658889 C0,4.41053333 4.56507937,0.000422222222 9.99470899,0.000422222222 C12.9989418,0.000422222222 15.1365079,1.1742 16.7470899,2.70792222 L14.8486772,4.60158889 C13.6952381,3.52281111 12.1333333,2.6847 9.99470899,2.6847 C6.03068783,2.6847 2.93121693,5.87247778 2.93121693,9.82658889 C2.93121693,13.7807 6.03068783,16.9684778 9.99470899,16.9684778 C12.5661376,16.9684778 14.0306878,15.9382556 14.968254,15.0030333 C15.7365079,14.2367 16.242328,13.1336444 16.4338624,11.6242 L9.99470899,11.6242 L9.99470899,8.93992222 L19.0529101,8.93992222 C19.1492063,9.41914444 19.1978836,9.99442222 19.1978836,10.6172 C19.1978836,12.6312 18.6444444,15.1233667 16.8666667,16.8967 C15.1365079,18.6943111 12.9259259,19.6527556 9.99470899,19.6527556 Z" id="Fill-1"></path>
                <path d="M30.4706878,13.32565 C30.4706878,11.0488167 28.8431746,9.49081667 26.9553439,9.49081667 C25.0685714,9.49081667 23.4410582,11.0488167 23.4410582,13.32565 C23.4410582,15.5782056 25.0685714,17.1604833 26.9553439,17.1604833 C28.8431746,17.1604833 30.4706878,15.5782056 30.4706878,13.32565 M33.2071958,13.32565 C33.2071958,16.9683722 30.3997884,19.65265 26.9553439,19.65265 C23.5119577,19.65265 20.7045503,16.9683722 20.7045503,13.32565 C20.7045503,9.65865 23.5119577,6.99865 26.9553439,6.99865 C30.3997884,6.99865 33.2071958,9.65865 33.2071958,13.32565" id="Fill-3"></path>
                <path d="M44.4853968,13.32565 C44.4853968,11.0488167 42.8578836,9.49081667 40.9700529,9.49081667 C39.0832804,9.49081667 37.454709,11.0488167 37.454709,13.32565 C37.454709,15.5782056 39.0832804,17.1604833 40.9700529,17.1604833 C42.8578836,17.1604833 44.4853968,15.5782056 44.4853968,13.32565 M47.2219048,13.32565 C47.2219048,16.9683722 44.4144974,19.65265 40.9700529,19.65265 C37.5256085,19.65265 34.7192593,16.9683722 34.7192593,13.32565 C34.7192593,9.65865 37.5256085,6.99865 40.9700529,6.99865 C44.4144974,6.99865 47.2219048,9.65865 47.2219048,13.32565" id="Fill-5"></path>
                <path d="M58.4352381,13.3495056 C58.4352381,11.1212278 56.945291,9.49039444 55.0479365,9.49039444 C53.1262434,9.49039444 51.5156614,11.1212278 51.5156614,13.3495056 C51.5156614,15.5545611 53.1262434,17.1600611 55.0479365,17.1600611 C56.945291,17.1600611 58.4352381,15.5545611 58.4352381,13.3495056 L58.4352381,13.3495056 Z M60.8860317,7.38139444 L60.8860317,18.7423389 C60.8860317,23.4152833 58.1230688,25.3332278 54.8553439,25.3332278 C51.7802116,25.3332278 49.9304762,23.2717278 49.2331217,21.59445 L51.6595767,20.58745 C52.092381,21.6176722 53.1495238,22.8400056 54.8553439,22.8400056 C56.945291,22.8400056 58.2437037,21.54695 58.2437037,19.1255056 L58.2437037,18.2145611 L58.1463492,18.2145611 C57.5220106,18.98195 56.3209524,19.6522278 54.8077249,19.6522278 C51.6362963,19.6522278 48.729418,16.8972278 48.729418,13.3495056 C48.729418,9.77856111 51.6362963,6.99822778 54.8077249,6.99822778 C56.3209524,6.99822778 57.5220106,7.66956111 58.1463492,8.41267222 L58.2437037,8.41267222 L58.2437037,7.38139444 L60.8860317,7.38139444 Z" id="Fill-7"></path>
                <polygon id="Fill-9" points="62.9830688 19.2691667 65.7703704 19.2691667 65.7703704 0.671333333 62.9830688 0.671333333"></polygon>
                <path d="M70.0715344,13.1339611 L75.7424339,10.78535 C75.4292063,9.99473889 74.4926984,9.44268333 73.3879365,9.44268333 C71.9699471,9.44268333 70.0006349,10.6892944 70.0715344,13.1339611 M76.7265608,15.4107944 L78.8895238,16.8484611 C78.1932275,17.8797389 76.5106878,19.6530722 73.6038095,19.6530722 C70.0006349,19.6530722 67.3974603,16.8727389 67.3974603,13.3260722 C67.3974603,9.56301667 70.0239153,6.99801667 73.2916402,6.99801667 C76.5826455,6.99801667 78.1932275,9.61051667 78.7212698,11.0249611 L79.0091005,11.7437944 L70.527619,15.2429611 C71.1773545,16.5127944 72.1858201,17.15985 73.6038095,17.15985 C75.0207407,17.15985 76.0059259,16.4652944 76.7265608,15.4107944" id="Fill-11"></path>
            </g>
        </g>
    </g>
</svg>