<?xml version="1.0" encoding="UTF-8"?>
<svg width="124px" height="48px" viewBox="0 0 124 48" version="1.1" xmlns="http://www.w3.org/2000/svg" xmlns:xlink="http://www.w3.org/1999/xlink">
    <!-- Generator: Sketch 57.1 (83088) - https://sketch.com -->
    <title>Logo/New/Groupon_Grey</title>
    <desc>Created with Sketch.</desc>
    <g id="Logo/New/Groupon_Grey" stroke="none" stroke-width="1" fill="none" fill-rule="evenodd">
        <g id="Logo_Groupon_Grey" transform="translate(2.000000, 16.000000)" fill="#6E7274" fill-rule="nonzero">
            <g id="Groupon_Logo" transform="translate(0.000000, 0.083333)">
                <path d="M49.29391,15.537619 C52.6360412,15.537619 54.8624457,13.3727477 54.8624457,9.71921214 L54.8624457,0.373427673 L51.2073053,0.373427673 L51.2073053,9.57286886 C51.2073053,11.2734787 50.5964324,12.1162141 49.3141042,12.1162141 C48.0772127,12.1162141 47.5471164,11.2532934 47.5471164,9.57286886 L47.5471164,0.373427673 L43.8717819,0.373427673 L43.8717819,9.71921214 C43.8768304,13.4534889 45.9113906,15.537619 49.29391,15.537619 Z" id="Path"></path>
                <path d="M64.6566065,1.1909315 C63.6468992,0.479400391 62.450396,0.373427673 60.8752527,0.373427673 L55.9175899,0.373427673 L55.9175899,15.3054883 L59.5727303,15.3054883 L59.5727303,10.4963454 L60.6228258,10.4963454 C62.1777751,10.4963454 63.3540841,10.3903727 64.3032089,9.82518485 C65.7925272,8.92189359 66.6760211,7.3272565 66.6760211,5.39451598 C66.6760211,3.52233129 65.9843716,2.11440804 64.6566065,1.1909315 Z M60.2896224,7.26165434 L59.6181671,7.26165434 L59.6181671,3.71409145 L60.5824376,3.71409145 C62.2030178,3.71409145 62.9804924,4.21872344 62.9804924,5.45507182 C62.9754438,6.79739291 62.0969985,7.26165434 60.2896224,7.26165434 Z" id="Shape"></path>
                <polygon id="Path" points="86.8903611 6.98915307 92.4588968 15.3054883 95.669766 15.3054883 95.669766 0.373427673 92.0196741 0.373427673 92.0196741 8.6695776 86.531915 0.373427673 83.2352207 0.373427673 83.2352207 15.3054883 86.8903611 15.3054883"></polygon>
                <path d="M40.6154758,2.3061682 C39.1665459,0.878059663 37.2783932,0.100926398 35.2791728,0.100926398 C33.1587875,0.100926398 31.3059746,0.837689104 29.8368505,2.28598292 C28.3677264,3.73427673 27.5650091,5.62664669 27.5650091,7.68554522 C27.5650091,9.89078701 28.2819013,11.7377401 29.6853944,13.2314508 C31.1545185,14.7857173 33.0477197,15.5830359 35.2539301,15.5830359 C37.3339271,15.5830359 39.3079049,14.765532 40.7568349,13.2516361 C42.1653765,11.8033423 42.9226808,9.89078701 42.9226808,7.75114737 C42.9277055,5.70738781 42.1300368,3.79483257 40.6154758,2.3061682 Z M35.2589787,11.8840834 C33.1991758,11.8840834 31.3312173,10.0775008 31.3312173,7.72591577 C31.3312173,5.54085926 33.0729624,3.79987889 35.3044155,3.79987889 C37.4046067,3.79987889 39.1514003,5.54085926 39.1514003,7.72591577 C39.1463517,10.158242 37.4046067,11.8840834 35.2589787,11.8840834 Z" id="Shape"></path>
                <path d="M80.2060988,2.3061682 C78.7571688,0.878059663 76.8639676,0.100926398 74.8697957,0.100926398 C72.7443619,0.100926398 70.8965975,0.837689104 69.4274734,2.28598292 C67.9583493,3.73427673 67.155632,5.62664669 67.155632,7.68554522 C67.155632,9.89078701 67.8725242,11.7377401 69.2760173,13.2314508 C70.75019,14.7857173 72.6383426,15.5830359 74.8445531,15.5830359 C76.9245501,15.5830359 78.8985278,14.765532 80.3474578,13.2516361 C81.7559995,11.8033423 82.5133038,9.89078701 82.5133038,7.75114737 C82.5183285,5.70738781 81.7206597,3.79483257 80.2060988,2.3061682 Z M74.8496016,11.8840834 C72.7897987,11.8840834 70.9218402,10.0775008 70.9218402,7.72591577 C70.9218402,5.54085926 72.6686338,3.79987889 74.8950384,3.79987889 C76.9952296,3.79987889 78.7420232,5.54085926 78.7420232,7.72591577 C78.7369747,10.158242 76.9901811,11.8840834 74.8496016,11.8840834 Z" id="Shape"></path>
                <path d="M23.6170536,10.1784272 C25.7374389,9.58800782 26.999573,7.78647161 26.999573,5.36928438 C26.999573,3.52233129 26.3079235,2.11440804 24.9801584,1.1909315 C23.9704511,0.479400391 22.773948,0.373427673 21.1988046,0.373427673 L16.2411418,0.373427673 L16.2411418,15.3054883 L19.8962822,15.3054883 L19.8962822,10.4963454 L22.7537538,15.3054883 L27.272194,15.3054883 L23.6170536,10.1784272 Z M20.6131744,7.26165434 L19.9013307,7.26165434 L19.9013307,3.71409145 L20.911038,3.71409145 C22.5265697,3.71409145 23.3040443,4.21872344 23.3040443,5.45507182 C23.3040443,6.79739291 22.4205504,7.26165434 20.6131744,7.26165434 Z" id="Shape"></path>
                <path d="M2.12543385,13.2264045 C3.59455796,14.780671 5.46756499,15.5981748 7.67377542,15.5981748 C10.2182378,15.5981748 12.6112441,14.3365948 14.0399799,12.257511 C14.9032796,10.9959311 15.3223082,9.56782254 15.3223082,7.88739801 C15.3223082,7.57452618 15.302114,7.23642274 15.2819199,6.89831931 L6.7700874,6.89831931 L6.7700874,9.88069437 L11.0361007,9.88069437 C10.2990144,11.1826449 9.06212295,11.8992223 7.67377542,11.8992223 C5.61397255,11.8992223 3.7662082,10.0724545 3.7662082,7.69563785 C3.7662082,5.5509519 5.48775913,3.76960097 7.67377542,3.76960097 C8.85008442,3.76960097 9.81435488,4.25404768 10.7432856,5.21789478 L14.9032796,5.21789478 C13.7067765,2.02357428 10.9098873,0.0706484787 7.71921225,0.0706484787 C5.59882694,0.0706484787 3.75106259,0.827596464 2.27688994,2.27589028 C0.807765834,3.72418409 0.0100704072,5.61655405 0.0100704072,7.67545258 C0.00504853646,9.88574069 0.716892178,11.7326938 2.12543385,13.2264045 Z" id="Path"></path>
            </g>
        </g>
    </g>
</svg>