<?xml version="1.0" encoding="UTF-8"?>
<svg width="124px" height="48px" viewBox="0 0 124 48" version="1.1" xmlns="http://www.w3.org/2000/svg" xmlns:xlink="http://www.w3.org/1999/xlink">
    <!-- Generator: Sketch 57.1 (83088) - https://sketch.com -->
    <title>Logo/New/Nubank_Grey</title>
    <desc>Created with Sketch.</desc>
    <g id="Logo/New/Nubank_Grey" stroke="none" stroke-width="1" fill="none" fill-rule="evenodd">
        <g id="Logo_NU-bank_Grey" transform="translate(0.000000, 11.000000)" fill="#6E7274" fill-rule="nonzero">
            <g id="nubank-logo">
                <path d="M59.7382087,18.6482372 C59.7382087,19.7287823 57.446485,21.056673 55.5824095,21.056673 L53.8855853,21.056673 C53.8872982,14.4448723 53.8872982,7.03236169 53.8855853,5.71659595 C53.8842342,5.63792177 53.9385368,5.56216932 54.0365483,5.50603765 C54.1345597,5.44990598 54.2682329,5.41800366 54.4081005,5.41736333 L59.2131283,5.41736333 C59.5019661,5.41736333 59.7382087,5.55364258 59.7382087,5.71902213 L59.7382087,18.6482372 Z M51.9077291,23.3768429 C51.9077291,24.0606693 51.3128146,25.2062051 47.3277373,25.2062051 C39.6050319,25.2062051 34.8646742,21.8030639 34.8646742,19.3621347 C34.8646742,19.3621347 34.8560201,11.4699743 34.8560201,5.71902213 C34.8544461,5.64022543 34.9087915,5.5643239 35.0070396,5.50814931 C35.1052876,5.45197473 35.2393183,5.4201698 35.3794093,5.41978753 L40.1904692,5.41978753 C40.4793034,5.41978753 40.7164073,5.55509591 40.7164073,5.7214483 L40.7164073,18.4023508 C40.7164073,20.4974833 43.6642635,22.196872 47.2984236,22.196872 L51.9103128,22.196872 L51.9077291,23.3768429 Z M59.5778428,4.28007296 L54.0425318,4.28007296 C52.865632,4.28007296 51.9068678,4.83295688 51.9068678,5.51145041 L51.9068678,21.0581283 L47.2949751,21.0581283 C44.7506278,21.0581283 42.6882499,19.868943 42.6882499,18.4023508 L42.6882499,5.51144843 C42.6882499,4.83150355 41.7312152,4.27958654 40.5517282,4.27958654 L35.0138335,4.27958654 C33.8343465,4.27958654 32.8773083,4.83150355 32.8755858,5.51144843 C32.8730197,11.1324251 32.8842087,19.3626211 32.8842087,19.3626211 C32.8850875,23.6886849 41.2957983,26.3449508 47.3260148,26.3449508 C51.3705808,26.3449508 53.8830272,25.2052382 53.8830272,23.3690819 L53.8830272,22.196874 L55.5815483,22.196874 C58.5613089,22.196874 61.7135084,20.3733291 61.7135084,18.6482392 L61.7135084,5.51144843 C61.7160694,4.83150355 60.7590487,4.27958654 59.5778428,4.27958654 L59.5778428,4.28007296 Z M26.8626477,20.7816883 C26.864001,20.8604019 26.8095537,20.9361789 26.7113306,20.9922487 C26.6131074,21.0483185 26.4792084,21.0800572 26.3392678,21.0804404 L21.5282043,21.0804404 C21.2356095,21.0783128 21.0008127,20.9438581 21.0022602,20.7792621 L21.0022602,8.09835959 C21.0022602,6.00322509 18.0535506,4.30383844 14.4202506,4.30383844 L9.80835439,4.30383844 L9.80835439,3.12387145 C9.80835439,2.44149841 10.4032706,1.29450728 14.3883479,1.29450728 C22.1110509,1.29450728 26.8531345,4.69764653 26.8531345,7.13857768 C26.8531345,7.13857768 26.8617609,15.0690487 26.8617609,20.7816883 L26.8626477,20.7816883 Z M2.50037148,21.0828626 C2.20771604,21.0804679 1.97366351,20.9453443 1.97698251,20.7807194 L1.97698251,7.85392855 C1.97698251,6.77338347 4.26873718,5.44354905 6.13194335,5.44354905 L7.83050117,5.44354905 C7.82789835,14.9119166 7.82789835,19.7569117 7.83050117,20.780233 C7.8333485,20.9448562 7.59891415,21.0797612 7.30626044,21.0818918 L2.50123307,21.0818918 L2.50037148,21.0828626 Z M28.8275679,7.1385757 C28.8284467,2.81202152 20.4176937,0.155761601 14.3883479,0.155761601 C10.3429165,0.155761601 7.83047503,1.29547617 7.83047503,3.13163047 L7.83047503,4.30383646 L6.13281057,4.30383646 C3.15219082,4.30383646 0,6.12737938 0,7.85247126 L0,20.98926 C0,21.6692088 0.957034011,22.2211219 2.13565763,22.2211219 L7.67010707,22.2211219 C7.70459381,22.2211219 7.7339061,22.2157851 7.76839847,22.2157851 C8.89959852,22.1852315 9.80577068,21.6493229 9.80577068,20.98926 L9.80577068,5.44258214 L14.4185278,5.44258214 C16.9620103,5.44258214 19.0252442,6.63176544 19.0252442,8.09835761 L19.0252442,20.98926 C19.0252442,21.6692088 19.9822842,22.2211219 21.1609061,22.2211219 L26.6996621,22.2211219 C27.879149,22.2211219 28.8353295,21.6706622 28.8353295,20.98926 C28.8396638,15.2635266 28.8284291,7.13808731 28.8284291,7.13808731 L28.8275679,7.1385757 Z M108.605831,21.0586147 C108.564581,21.0587666 108.52561,21.0479846 108.500645,21.0295124 L103.723212,17.4571141 L103.677517,17.4571141 L103.677517,20.9829543 C103.678209,21.0031039 103.664581,21.0225762 103.639655,21.0370527 C103.614728,21.0515292 103.580564,21.0598134 103.544739,21.060068 L101.855691,21.060068 C101.820017,21.0598124 101.785986,21.0515949 101.761084,21.0372237 C101.736183,21.0228525 101.722452,21.0035052 101.722902,20.9834388 L101.722902,10.8511328 C101.722902,10.8084562 101.782405,10.774021 101.855691,10.774021 L103.544739,10.774021 C103.618021,10.774021 103.677517,10.8084581 103.677517,10.8511328 L103.677517,17.3125894 L103.723212,17.3125894 L108.209227,14.0413674 C108.245861,14.0136292 108.303854,13.9974076 108.365283,13.997716 L110.33109,13.997716 C110.388859,13.997716 110.418173,14.0360326 110.381962,14.0597941 L105.565728,17.3509021 L110.838059,20.9960482 C110.854621,21.0071937 110.858373,21.0226892 110.847715,21.0359205 C110.837058,21.0491517 110.813872,21.0577815 110.788055,21.0581263 L108.605831,21.0581263 L108.605831,21.0586147 Z M96.9273729,21.0586167 C96.8916991,21.058359 96.8576674,21.0501416 96.832766,21.0357704 C96.8078645,21.0213992 96.7941337,21.0020518 96.7945948,20.9819854 L96.7945948,16.1845154 C96.7945948,15.1238523 96.0444784,14.5986114 94.0459058,14.5986114 C93.2432048,14.5986114 92.5844815,14.6699098 91.9714635,14.8144325 C91.9201538,14.8271192 91.8870087,14.8556554 91.8869638,14.8871823 L91.8869638,20.9805301 C91.8874237,21.0006793 91.8735746,21.0200992 91.8484874,21.034484 C91.8234001,21.0488687 91.7891476,21.0570297 91.7533245,21.0571574 L90.0194469,21.0571574 C89.9450247,21.0566246 89.8853278,21.022395 89.8858023,20.9805301 L89.8858023,14.4385686 C89.8852401,14.3935349 89.9309074,14.3523579 90.0030623,14.332843 C91.1247831,14.0481576 92.5732748,13.8658027 94.0433186,13.8658027 C97.3386364,13.8658027 98.7931674,14.6912451 98.7931674,16.1845173 L98.7931674,20.9819874 C98.7931674,21.0241796 98.732814,21.0586167 98.659521,21.0586167 L96.9273729,21.0586167 Z M85.0980221,17.0759154 C81.9846292,17.2849444 80.1446929,17.7839917 80.1446929,19.028465 C80.1446929,19.9848558 81.1672625,20.5217333 83.0761715,20.5217333 C83.8107575,20.5217333 84.545354,20.4383158 85.0264586,20.3073714 C85.0724357,20.29378 85.1008093,20.2667401 85.0997735,20.2375303 L85.0980221,17.0759154 Z M82.8916594,21.1895591 C79.9601878,21.1895591 78.2349261,20.4552912 78.2349261,19.0546527 C78.2349261,17.3513865 81.1439845,16.6966585 85.0971609,16.4745336 L85.0971609,16.0419285 C85.0971609,15.0719574 84.1884047,14.6398366 82.4838373,14.6398366 C81.4423029,14.6398366 80.3128239,14.8144305 79.4782185,15.0656517 C79.4618724,15.070634 79.4424466,15.0712964 79.4251503,15.0674613 C79.407854,15.0636261 79.3944568,15.0556859 79.3885514,15.0457697 L78.9824553,14.4439035 C78.9570943,14.4067472 78.9847968,14.3647794 79.0471219,14.3459369 C80.1746403,14.0366662 81.4105298,13.8726443 82.664901,13.8658007 C85.3239158,13.8658007 86.9603681,14.5864923 86.9603681,16.1583237 L86.9603681,20.6197018 C86.9603681,20.6633493 86.920709,20.7040882 86.8517327,20.7225168 C85.8774522,21.0072042 84.4686196,21.1895591 82.8916594,21.1895591 L82.8916594,21.1895591 Z M71.3295909,14.5864904 C70.6018948,14.5864904 69.943175,14.6907587 69.3749871,14.8483792 L69.3749871,20.21959 C69.3749871,20.251597 69.4043008,20.279242 69.4551735,20.2908825 C69.9043772,20.3966081 70.5242991,20.4548067 71.1019712,20.4548067 C73.6238982,20.4548067 74.624051,19.2234293 74.624051,17.4551724 C74.624051,15.6869175 73.4428345,14.586002 71.3295909,14.586002 L71.3295909,14.5864904 Z M71.0364434,21.1890747 C69.6388209,21.1890747 68.325698,20.9839232 67.499712,20.7234857 C67.4355629,20.7024364 67.3968966,20.6634 67.3987619,20.6216396 L67.3987619,10.8496794 C67.3987619,10.8074853 67.4591846,10.7730502 67.5298869,10.7730502 L69.2439349,10.7730502 C69.3172244,10.7730502 69.3767095,10.8070008 69.3767095,10.8496794 L69.3767095,14.2057761 C70.0811241,13.9962607 70.9209111,13.8905351 71.8313898,13.8905351 C74.6956145,13.8905351 76.6269298,15.2533434 76.6269298,17.387277 C76.6252425,19.6696147 74.6930238,21.1895591 71.0355821,21.1895591 L71.0364434,21.1890747 Z" id="path2-08"></path>
            </g>
        </g>
    </g>
</svg>