<?xml version="1.0" encoding="UTF-8"?>
<svg width="124px" height="48px" viewBox="0 0 124 48" version="1.1" xmlns="http://www.w3.org/2000/svg" xmlns:xlink="http://www.w3.org/1999/xlink">
    <!-- Generator: Sketch 57.1 (83088) - https://sketch.com -->
    <title>Logo/New/Sonos_Grey</title>
    <desc>Created with Sketch.</desc>
    <g id="Logo/New/Sonos_Grey" stroke="none" stroke-width="1" fill="none" fill-rule="evenodd">
        <g id="Logo_Sonos_Grey" transform="translate(0.000000, 16.000000)" fill="#6E7274" fill-rule="nonzero">
            <g id="Sonos_logo" transform="translate(0.000000, 0.083333)">
                <path d="M43.3789961,0.55682208 L46.1868422,0.55682208 L46.1868422,15.5910182 L36.7022214,6.75797733 L36.7022214,15.1353503 L33.8943753,15.1353503 L33.8943753,0.139207122 L43.3789961,8.98526565 L43.3789961,0.55682208 Z M29.4548712,7.87162149 C29.4548712,12.2120328 25.9262942,15.743243 21.5888968,15.743243 C17.2504937,15.743243 13.7219166,12.2120328 13.7219166,7.87162149 C13.7219166,3.53121661 17.2504937,0 21.5888968,0 C25.9262942,0 29.4548712,3.53121661 29.4548712,7.87162149 L29.4548712,7.87162149 Z M26.5719474,7.87162149 C26.5719474,5.08751109 24.332678,2.82216979 21.5758852,2.82216979 C18.8190861,2.82216979 16.5928283,5.08751109 16.5928283,7.87162149 C16.5928283,10.6557319 18.8310983,12.9210796 21.5758852,12.9210796 C24.332678,12.9210796 26.570948,10.6557319 26.570948,7.87162149 L26.5719474,7.87162149 Z M8.92905576,7.99781099 C8.18230161,7.42797129 7.19629681,6.97329682 5.7418233,6.50460485 C2.89593543,5.59325616 2.89593543,4.88521562 2.89593543,4.53068901 C2.89593543,3.72049446 3.79384448,2.88525813 5.31138355,2.88525813 C6.58867897,2.88525813 7.57568318,3.51819258 7.94205796,3.79660683 L8.14425983,3.94883157 L10.4085531,2.41656616 L10.1552978,2.12614059 C10.0802201,2.0370106 8.33444952,0 5.29937778,0 C3.84389844,0 2.50453688,0.468691966 1.53055067,1.31594603 C0.556564462,2.16419357 0,3.32891474 0,4.54270675 C0,5.8346173 0.569576058,6.92221981 1.68170557,7.77047376 C2.42845972,8.33931358 3.41446452,8.79498793 4.86893803,9.26268002 C7.7148259,10.1620046 7.7148259,10.8830691 7.7148259,11.2375893 C7.7148259,12.0477903 6.81691044,12.8830202 5.29937778,12.8830202 C4.02207595,12.8830202 3.03507815,12.2500858 2.66870337,11.9716779 L2.4665015,11.8194532 L0.202201871,13.3517122 L0.455463527,13.6421442 C0.531540683,13.7302743 2.27731123,15.7552607 5.29937778,15.7552607 C6.75385129,15.7552607 8.09420586,15.2875686 9.06819848,14.4393211 C10.0421847,13.5910672 10.5977497,12.4143282 10.5977497,11.212554 C10.5977497,9.93366745 10.0421847,8.85908255 8.92905576,7.99781099 Z M50.6513701,7.93474188 C50.6513701,3.59433059 54.1799472,0.0631203895 58.5183503,0.0631203895 C62.8557477,0.0631203895 66.3843247,3.59433059 66.3843247,7.93474188 C66.3843247,12.2751468 62.8557477,15.8063634 58.5183503,15.8063634 C54.1799472,15.8063634 50.6513701,12.2751468 50.6513701,7.93474188 Z M53.5222818,7.93474188 C53.5222818,10.7188523 55.7605518,12.9841936 58.5053323,12.9841936 C61.2621314,12.9841936 63.4883893,10.7188523 63.4883893,7.93474188 C63.4883893,5.15063148 61.2501193,2.88428389 58.5053323,2.88428389 C55.7605518,2.88428389 53.5222818,5.1496316 53.5222818,7.933742 L53.5222818,7.93474188 Z M71.1651734,7.79453488 C71.9109345,8.36537445 72.8969329,8.82004893 74.3524059,9.28874089 C77.1972943,10.2000832 77.1972943,10.9081301 77.1972943,11.2626567 C77.1972943,12.0728513 76.2993789,12.9080812 74.7818462,12.9080812 C73.5045508,12.9080812 72.518546,12.2751468 72.1511782,11.9967389 L71.9489699,11.8455141 L69.6856761,13.3767732 L69.9379319,13.6672052 C70.0140091,13.7563351 71.7597796,15.7803217 74.7828456,15.7803217 C76.2363197,15.7803217 77.5766807,15.312636 78.5506669,14.4643821 C79.5246531,13.617128 80.0812176,12.4524133 80.0812176,11.237615 C80.0812176,9.9467107 79.5116415,8.85810832 78.399512,8.01085425 C77.6527514,7.44101455 76.6667531,6.9853402 75.2122795,6.51764811 C72.3663917,5.60630583 72.3663917,4.897259 72.3663917,4.54273239 C72.3663917,3.73353771 73.2643071,2.8983078 74.7818462,2.8983078 C76.0591352,2.8983078 77.0461394,3.53124225 77.4125142,3.80965008 L77.6147161,3.96087495 L79.8790157,2.42961583 L79.625754,2.13918384 C79.5496769,2.05005385 77.8039063,0.0260672852 74.7818462,0.0260672852 C73.3273663,0.0260672852 71.9870117,0.493752966 71.0130191,1.34100703 C70.0390329,2.18926098 69.4834678,3.36599348 69.4834678,4.56877404 C69.4955121,5.8596783 70.0520445,6.94728722 71.1651734,7.79553476 L71.1651734,7.79453488 Z" id="logo-sonos"></path>
            </g>
        </g>
    </g>
</svg>