<?xml version="1.0" encoding="UTF-8"?>
<svg width="124px" height="48px" viewBox="0 0 124 48" version="1.1" xmlns="http://www.w3.org/2000/svg" xmlns:xlink="http://www.w3.org/1999/xlink">
    <!-- Generator: Sketch 57.1 (83088) - https://sketch.com -->
    <title>Logo/New/Square_Grey</title>
    <desc>Created with Sketch.</desc>
    <g id="Logo/New/Square_Grey" stroke="none" stroke-width="1" fill="none" fill-rule="evenodd">
        <g id="Logo_Square_Grey" transform="translate(0.000000, 12.000000)" fill="#6E7274" fill-rule="nonzero">
            <g id="Square_Inc._logo" transform="translate(0.000000, 0.125000)">
                <g id="g3486" transform="translate(0.410998, 0.000000)">
                    <g id="g3478" transform="translate(28.769841, 3.689732)">
                        <path d="M16.0683632,4.12532552 C15.1812287,4.15075188 14.335268,4.50925978 13.6409079,5.04775856 C13.3925872,5.22465579 13.090212,5.51698712 12.9266925,5.78177747 C12.5710315,6.26819568 12.269318,6.78786575 12.099054,7.36848651 C11.6065201,8.99065921 11.694024,10.8273989 12.4819313,12.3418355 C12.7887329,12.880474 13.1173502,13.347729 13.6023768,13.7468145 C13.9957715,13.9912023 14.4528914,14.3129896 14.940417,14.4394035 C16.2735456,14.8614933 17.8182601,14.6445866 18.9325037,13.7852493 C19.2112876,13.6125157 19.465391,13.2801339 19.6902808,13.0037435 C19.6740052,12.9311468 19.903679,12.6334854 19.921467,12.8653785 C19.920645,14.5144338 19.922289,16.1784936 19.921467,17.8337054 C20.4223705,17.8337054 20.923274,17.8337054 21.4241774,17.8337054 C21.4241774,13.341115 21.4241774,8.84852417 21.4241774,4.35593378 C20.923274,4.35593378 20.4223705,4.35593378 19.921467,4.35593378 C19.921467,4.95380691 19.921467,5.55168044 19.921467,6.14955357 C19.652358,5.7562847 19.4145999,5.32513253 19.0352531,5.0733817 C18.2058145,4.40960913 17.1355476,4.04194454 16.0683632,4.12532552 Z M16.5949541,5.48335193 C17.2848425,5.48158906 18.0675548,5.67580426 18.560037,6.11111886 C18.9526672,6.42845714 19.2464895,6.76371236 19.4586013,7.22991411 C20.0204722,8.43471866 20.0704043,9.8673781 19.6316478,11.1186925 C19.4346895,11.7238537 19.0560784,12.2351235 18.560037,12.632208 C17.8298338,13.255236 16.7722051,13.359405 15.8486808,13.1987852 C15.2372888,13.0941239 14.7184083,12.7451982 14.3257082,12.2811008 C13.5944857,11.480215 13.3859002,10.3214193 13.3992905,9.26027368 C13.4361159,8.33927554 13.6134779,7.37308064 14.1803424,6.62358166 C14.5620154,6.15282759 15.0611804,5.74590999 15.6727163,5.6017497 C15.9697526,5.50601386 16.2838411,5.47456422 16.5949541,5.48335193 L16.5949541,5.48335193 Z" id="path3299"></path>
                        <path d="M5.02968134,0.269042969 C3.8863925,0.314701559 2.72230842,0.613736106 1.80591787,1.3195917 C1.61783791,1.44415583 1.40990882,1.66899909 1.27978159,1.8644155 C0.72071165,2.5689141 0.434759977,3.48453671 0.523963336,4.38404831 C0.55596362,5.03846822 0.798097591,5.67468258 1.24079599,6.16236514 C1.37041358,6.35716045 1.62060845,6.57836727 1.82410164,6.70608612 C3.00734644,7.62338551 4.54606811,7.79376217 5.9425073,8.21088393 C6.81450393,8.47571158 7.82400231,8.65545565 8.39472527,9.42931548 C8.87808121,10.0180692 8.86449979,10.9029535 8.60022414,11.5944708 C8.37412565,12.1609238 7.88069328,12.565844 7.35438726,12.8500047 C6.2522245,13.3256214 4.9756113,13.2947166 3.83538974,12.9762148 C2.97639667,12.7139618 2.21444386,12.2048357 1.65680009,11.4987526 C1.51413866,11.2667898 1.38726613,11.1173593 1.16408902,11.3853942 C0.825754039,11.6216367 0.487418651,11.8578795 0.149083262,12.094122 C0.420815235,12.5198163 0.741702948,12.9284455 1.12520288,13.2215402 C1.78122266,13.7220081 2.49267946,14.164641 3.29958844,14.3722947 C4.80938408,14.8210054 6.4852857,14.7742807 7.9451965,14.1695964 C8.53446532,13.862607 9.09726835,13.5524464 9.51408458,13.037466 C10.0532355,12.4018084 10.3996491,11.5102506 10.4163105,10.6414495 C10.4604496,9.80735313 10.1906612,8.96135372 9.64056215,8.32752046 C9.53566319,8.16266364 9.34633134,7.99409823 9.16462184,7.88874612 C8.88974491,7.64528202 8.57883088,7.4926009 8.24194426,7.31076147 C6.73954945,6.56109318 5.0263576,6.3992935 3.49172823,5.7441135 C3.0216878,5.51112373 2.55111594,5.18835047 2.30682136,4.71465774 C1.9414341,3.90584713 2.22612277,2.88214612 2.94168421,2.3691274 C3.56672915,1.86949749 4.42483529,1.72251127 5.21719905,1.71675037 C6.5930789,1.70272529 7.9881285,2.3012269 8.81856668,3.4078776 C9.22956441,3.10039993 9.64056215,2.79292225 10.0515599,2.48544457 C9.69105856,1.98473685 9.2403605,1.59689721 8.74709089,1.26525261 C7.6582013,0.550874139 6.33213767,0.202119796 5.02968134,0.269042969 Z" id="path3297"></path>
                        <path d="M23.9603458,10.8898344 C23.9619898,11.7701988 24.141119,12.6848826 24.6795918,13.4009022 C24.9150607,13.7827218 25.3795374,14.0862031 25.7923024,14.3109623 C26.870855,14.8088113 28.165691,14.7327188 29.233681,14.2447021 C29.7201297,13.9820571 30.1873149,13.6553227 30.4977785,13.2343517 C30.640107,13.103372 30.8005317,12.7314868 30.8830889,12.7116397 C30.8830889,13.2787651 30.8830889,13.8458908 30.8830889,14.4130162 C31.3839923,14.4130162 31.8848958,14.4130162 32.3857993,14.4130162 C32.3857993,11.0606555 32.3857993,7.70829444 32.3857993,4.35593378 C31.8848958,4.35593378 31.3839923,4.35593378 30.8830889,4.35593378 C30.8726495,6.4099269 30.9073788,8.46509253 30.8574015,10.5182989 C30.7359846,11.3450244 30.3593709,12.1433955 29.675783,12.6450195 C28.8472445,13.2747629 27.6465639,13.4277946 26.6703621,13.0421782 C25.9866427,12.7356672 25.5970785,11.9872215 25.5482931,11.2520538 C25.4306573,9.96603129 25.5137282,8.67166465 25.4887436,7.3820266 C25.4887436,6.37332886 25.4887436,5.36463152 25.4887436,4.35593378 C24.9792791,4.35593378 24.4698104,4.35593378 23.9603458,4.35593378 C23.9603458,6.53390067 23.9603458,8.71186756 23.9603458,10.8898344 Z" id="path3301"></path>
                        <path d="M38.5567248,4.12532552 C37.2524029,4.16757049 35.9600822,4.59061181 34.8962762,5.34242467 C35.1146188,5.70968953 35.3329613,6.07695481 35.5513039,6.44421968 C36.4368724,5.76629043 37.5762856,5.48905831 38.6774554,5.44491722 C39.4795051,5.43395052 40.4239902,5.5869633 40.8851913,6.29673248 C41.1485463,6.77834091 41.0884461,7.46957861 40.6374008,7.81505766 C40.2595911,8.17692363 39.6179785,8.32574324 39.0704719,8.43001302 C38.0315848,8.62041673 36.9424408,8.66130429 35.9676117,9.09997163 C35.5292497,9.30463328 35.1226003,9.60559776 34.8705889,9.99302455 C34.3318777,10.6591963 34.294107,11.5840067 34.4538413,12.3914648 C34.5452431,12.8471496 34.7793556,13.2446764 35.063244,13.6058873 C35.2122677,13.8269416 35.5078244,13.9748191 35.7568027,14.1567848 C36.6962367,14.6919919 37.8491963,14.7355033 38.8933442,14.534057 C39.5086736,14.3942445 40.0764999,14.0793808 40.5190252,13.679529 C40.7510663,13.5297693 40.7960624,13.2789963 40.9970238,13.1318592 C41.1896461,13.1840828 41.0397552,13.4925822 41.0869296,13.644322 C41.0869296,13.9005534 41.0869296,14.1567848 41.0869296,14.4130162 C41.5707068,14.4130162 42.0544881,14.4130162 42.5382653,14.4130162 C42.5274972,11.8038586 42.5631307,9.19353339 42.5125779,6.58514695 C42.39516,5.869441 42.0136308,5.12954434 41.386999,4.78111268 C40.566627,4.24485808 39.5262849,4.07054571 38.5567248,4.12532552 L38.5567248,4.12532552 Z M41.0355548,8.8656064 C40.9937646,9.91542416 41.2060408,11.0494404 40.6800788,12.0137334 C40.2472694,12.7966573 39.3881978,13.2589647 38.5029252,13.3274375 C37.7181209,13.39259 36.8028002,13.2942586 36.2705499,12.6578311 C35.8920333,12.1962669 35.8194223,11.4952584 36.0032534,10.928639 C36.1443613,10.4370871 36.5854522,10.1329896 37.0541088,9.97901423 C38.1606463,9.59997707 39.3659259,9.59743197 40.4575893,9.17308408 C40.6738768,9.0533289 40.8726929,8.94016236 41.0355548,8.77592541 C41.0355548,8.80582044 41.0355548,8.8357126 41.0355548,8.8656064 L41.0355548,8.8656064 Z" id="path3303"></path>
                        <path d="M49.4669719,4.16376023 C48.6650126,4.22613884 47.88057,4.5912731 47.3244325,5.11456362 C47.0807561,5.38247917 46.8527921,5.71819396 46.6413625,6.04706101 C46.6413625,5.48335193 46.6413625,4.91964286 46.6413625,4.35593378 C46.140459,4.35593378 45.6395556,4.35593378 45.1386521,4.35593378 C45.1386521,7.70829444 45.1386521,11.0606555 45.1386521,14.4130162 C45.6395556,14.4130162 46.140459,14.4130162 46.6413625,14.4130162 C46.6552543,12.4523913 46.6099212,10.4895043 46.672845,8.53035529 C46.7894039,7.5816325 47.1870401,6.61584839 47.996307,6.05990989 C48.718093,5.51809117 49.7521304,5.47656775 50.5843556,5.80364118 C50.7628437,5.71279178 50.6909848,5.40532394 50.785839,5.23139981 C50.8513973,4.98228303 50.9169514,4.73316625 50.9825096,4.48404948 C50.5282955,4.22210801 49.9856223,4.13290751 49.4669555,4.16376023 L49.4669719,4.16376023 Z" id="path3305"></path>
                        <path d="M56.0360514,4.12532552 C55.1572191,4.14035093 54.3103295,4.45257893 53.5829087,4.93245443 C53.4366798,5.04344157 53.262351,5.17129161 53.1043183,5.30735622 C52.7282924,5.67051606 52.4443751,6.11751645 52.170104,6.58514695 C51.4269749,8.04771126 51.3429341,9.8036183 51.8107893,11.3647796 C52.0149606,12.0802765 52.4483248,12.7441487 52.9119179,13.2763913 C53.1012605,13.4701793 53.3085801,13.6306159 53.493003,13.7596261 C54.2589137,14.310998 55.1895852,14.6081805 56.1335113,14.6369546 C57.3894546,14.7067127 58.7043474,14.4109307 59.6845523,13.5943929 C59.9926156,13.3864376 60.2461889,13.139408 60.4928081,12.8371931 C60.1545899,12.5297154 59.8163757,12.2222377 59.4781575,11.91476 C58.9567493,12.5824925 58.1973611,13.0451796 57.3572941,13.1916956 C56.193928,13.4164659 54.8435333,13.1697417 54.0385326,12.2539403 C53.362055,11.6050452 53.1418876,10.6116762 53.1205363,9.69835844 C53.2630991,9.46710899 53.6205479,9.66115365 53.8551947,9.59586589 C56.2004505,9.59586589 58.5457063,9.59586589 60.8909622,9.59586589 C61.0605028,8.23362088 60.7477212,6.78771365 59.881449,5.70371094 C59.6735334,5.38280263 59.3374524,5.15033393 59.015785,4.91964286 C58.166861,4.31689108 57.0701464,4.06205071 56.0360514,4.12532552 Z M56.575486,5.40648251 C57.5783944,5.46643697 58.5485463,6.02749272 59.0137834,6.9175459 C59.2345879,7.39191303 59.3645207,7.91745511 59.375408,8.44282459 C57.294732,8.44282459 55.214056,8.44282459 53.13338,8.44282459 C53.2309673,7.70607118 53.4070387,6.91335436 53.9553754,6.38016183 C54.0535381,6.21156649 54.3266872,6.0462341 54.486142,5.88627478 C55.0974765,5.48890252 55.8538315,5.35580978 56.575486,5.40648251 Z" id="path3307"></path>
                    </g>
                    <path d="M18.2209515,0.369389002 L3.64457364,0.369389002 C1.64060254,0.369389002 -2.32624717e-06,2.005252 -2.32624717e-06,4.00485355 L-2.32624717e-06,18.5447905 C-2.32624717e-06,20.5434315 1.64060254,22.1789742 3.64457364,22.1789742 L18.2209515,22.1789742 C20.2249226,22.1789742 21.8655278,20.5434315 21.8655278,18.5447905 L21.8655278,4.00485355 C21.8655278,2.005252 20.2249226,0.369389002 18.2209515,0.369389002 L18.2209515,0.369389002 Z M17.8896849,17.0587776 C17.8896849,17.6940396 17.3680684,18.2127511 16.7305722,18.2127511 L5.13399009,18.2127511 C4.49681497,18.2127511 3.97519843,17.6940396 3.97519843,17.0587776 L3.97519843,5.49150706 C3.97519843,4.85592487 4.49681497,4.33561237 5.13399009,4.33561237 L16.7305722,4.33561237 C17.3680684,4.33561237 17.8896849,4.85592487 17.8896849,5.49150706 L17.8896849,17.0587776 Z M13.915126,13.5872517 C13.915126,13.9519509 13.6169221,14.2484488 13.2532347,14.2484488 L8.61550051,14.2484488 C8.25085017,14.2484488 7.95360921,13.9519509 7.95360921,13.5872517 L7.95360921,8.96143202 C7.95360921,8.59801349 8.25085017,8.30087486 8.61550051,8.30087486 L13.2532347,8.30087486 C13.6169221,8.30087486 13.915126,8.59801349 13.915126,8.96143202 L13.915126,13.5872517 Z" id="path3010"></path>
                </g>
            </g>
        </g>
    </g>
</svg>