<?xml version="1.0" encoding="UTF-8"?>
<svg width="124px" height="48px" viewBox="0 0 124 48" version="1.1" xmlns="http://www.w3.org/2000/svg" xmlns:xlink="http://www.w3.org/1999/xlink">
    <!-- Generator: Sketch 57.1 (83088) - https://sketch.com -->
    <title>Logo/New/BMW_Grey</title>
    <desc>Created with Sketch.</desc>
    <g id="Logo/New/BMW_Grey" stroke="none" stroke-width="1" fill="none" fill-rule="evenodd">
        <g id="Logo_BMW_Grey" transform="translate(0.000000, 6.000000)" fill-rule="nonzero">
            <g id="bmw-logo">
                <path d="M18.2539316,36.4166667 C23.1297075,36.4166667 27.7135681,34.5225731 31.1614052,31.0835017 C34.6090958,27.6443572 36.5079365,23.0718832 36.5079365,18.2082968 C36.5079365,13.3447834 34.6090958,8.77230946 31.1614052,5.333165 C27.7136413,1.89402053 23.1297075,0 18.2539316,0 C8.1886406,0 0,8.168169 0,18.2082968 C0,23.0718832 1.89876745,27.6443572 5.34653132,31.0835017 C8.7942952,34.5225731 13.378229,36.4166667 18.2539316,36.4166667 Z" id="Path" fill="#6E7274"></path>
                <path d="M0.676072898,18.2082969 C0.676072898,13.5249499 2.50452407,9.12177891 5.82459109,5.81001894 C9.14465811,2.49818611 13.5588008,0.674382716 18.2539683,0.674382716 C22.9491357,0.674382716 27.3633515,2.49818611 30.6833454,5.81001894 C34.0034124,9.12177891 35.8318636,13.5248771 35.8318636,18.2082969 C35.8318636,27.8765899 27.9464396,35.742284 18.2539683,35.742284 C13.5588008,35.742284 9.14465811,33.9184077 5.82459109,30.6066477 C2.50452407,27.2948149 0.676072898,22.8917167 0.676072898,18.2082969 Z" id="Path" fill="#FFFFFF"></path>
                <path d="M18.2539683,1.34876543 C8.91946775,1.34876543 1.3521458,8.89715273 1.3521458,18.2082968 C1.3521458,27.5194409 8.91946775,35.0679012 18.2539683,35.0679012 C27.5884688,35.0679012 35.1557907,27.5194409 35.1557907,18.2082968 C35.1557907,8.89715273 27.5884688,1.34876543 18.2539683,1.34876543 Z" id="Path" fill="#6E7274"></path>
                <path d="M18.2539683,28.9984568 C12.2799006,28.9984568 7.43680188,24.1675391 7.43680188,18.2083333 C7.43680188,12.2492008 12.2799006,7.41820988 18.2539683,7.41820988 C24.2280359,7.41820988 29.0711346,12.2492008 29.0711346,18.2083333 C29.0711346,24.1675391 24.2281093,28.9984568 18.2539683,28.9984568 Z" id="Path" fill="#FFFFFF"></path>
                <path d="M8.11287478,18.2082967 L18.2539683,18.2082967 L18.2539683,8.09259259 C12.6532699,8.09259259 8.11287478,12.6216937 8.11287478,18.2082967 Z M18.2539683,18.2082967 L18.2539683,28.3240741 C23.8546666,28.3240741 28.3950617,23.7950463 28.3950617,18.2082967 L18.2539683,18.2082967 Z" id="Shape" fill="#6E7274"></path>
                <path d="M10.463057,7.61426121 C10.1067577,7.27175089 9.55600733,7.16852168 9.03895401,7.48556735 C9.13771126,7.23243578 9.09737687,6.97411028 9.04493487,6.83156597 C8.82218401,6.42983051 8.74443273,6.37955046 8.56084926,6.22719541 C7.96655521,5.7339892 7.34111689,6.1550576 6.89379173,6.68231285 L4.73251029,9.22971531 L8.13000796,12.0493659 L10.4092292,9.36295384 C10.9300023,8.74913322 11.0105252,8.14057866 10.463057,7.61426121 L10.463057,7.61426121 Z M18.9251099,6.40378876 L20.0918897,3.34507351 L20.0918897,6.40378876 L20.9786628,6.40378876 L20.9786628,2.02314815 L19.646315,2.02314815 L18.4344599,5.15962796 L18.4470051,5.15962796 L17.23515,2.02314815 L15.9028752,2.02314815 L15.9028752,6.40378876 L16.7895753,6.40378876 L16.7895753,3.34507351 L17.9564281,6.40378876 L18.9251099,6.40378876 Z M30.8474595,8.22627838 L29.1779221,10.5640484 L31.7661792,9.3487427 L32.4514991,10.1857577 L28.3776528,12.1388889 L27.573372,11.1486532 L29.175734,8.83137033 L29.1662521,8.81975614 L26.5413075,9.8881171 L25.7291494,8.90415738 L28.5078461,5.36911616 L29.193166,6.20613117 L27.4530982,8.45740792 L30.1122504,7.32830693 L30.8474595,8.22627838 Z" id="Shape" fill="#FFFFFF"></path>
                <path d="M7.27158972,7.54211886 C7.40910276,7.37170763 7.71987424,7.37870989 7.91974165,7.55300354 C8.13948242,7.74469883 8.14001594,8.01646938 7.99243283,8.1992212 L6.81890372,9.65312426 L6.08465608,9.0125916 L7.27158972,7.54211886 L7.27158972,7.54211886 Z M9.35956057,9.25725442 L8.12227662,10.7901235 L7.34641496,10.1133316 L8.59370228,8.56798332 C8.73454978,8.39348167 9.04858903,8.34266335 9.26039379,8.52749505 C9.50014132,8.73652265 9.52388266,9.05370383 9.35956057,9.25725442 Z" id="Shape" fill="#6E7274"></path>
            </g>
        </g>
    </g>
</svg>