<?xml version="1.0" encoding="UTF-8"?>
<svg width="124px" height="48px" viewBox="0 0 124 48" version="1.1" xmlns="http://www.w3.org/2000/svg" xmlns:xlink="http://www.w3.org/1999/xlink">
    <!-- Generator: Sketch 57.1 (83088) - https://sketch.com -->
    <title>Logo/New/Dream11_Grey</title>
    <desc>Created with Sketch.</desc>
    <g id="Logo/New/Dream11_Grey" stroke="none" stroke-width="1" fill="none" fill-rule="evenodd">
        <g id="Logo_Dream11_Grey" transform="translate(0.000000, 11.000000)" fill="#6E7274" fill-rule="nonzero">
            <g id="Dream11_Logo" transform="translate(0.000000, 0.333333)">
                <path d="M15.6385623,22.595336 C16.3436267,23.184303 17.047295,23.7608561 17.7328131,24.3553404 C18.0373104,24.6261838 18.198517,25.0205194 18.1698134,25.4243086 C18.1698134,25.6532747 18.1698134,25.8808615 18.1614364,26.125 L8.83085122,26.125 C8.78641506,25.7382471 8.79251516,25.3474539 8.8490014,24.9622385 C8.88940167,24.8013288 8.97060253,24.6532291 9.08495365,24.5318926 C9.29169579,24.3005184 9.51520744,24.0843147 9.75371772,23.8849944 C10.4113125,23.3332689 11.0814727,22.806371 11.7460483,22.2684386 C11.8312145,22.1994729 11.9135883,22.1305072 12.0252817,22.0311966 C11.8968343,21.9387826 11.7949141,21.8601617 11.6888054,21.7870581 C9.54243109,20.3001578 7.3946606,18.8137173 5.24549394,17.3277366 C4.61582255,16.8891148 4.00709366,16.4201481 3.40394944,15.9484228 C2.3479375,15.1403282 1.48393548,14.1134989 0.872698372,12.9401394 C0.445231632,12.1117681 0.190738776,11.2069346 0.12435277,10.2794431 C0.0489597431,9.24771634 0.0280172356,8.21047236 0.00288622662,7.17460769 C-0.00967927789,6.635296 0.022432567,6.09460499 0.0294134028,5.55529329 C0.0125193067,5.42280325 0.0724246347,5.29217587 0.184387958,5.21736141 C1.09958377,4.60043099 2.07927432,4.08251017 3.10656584,3.67252995 C3.1555248,3.65992202 3.20551594,3.65161381 3.25595573,3.64770231 C3.27441701,3.72202959 3.28702024,3.79765849 3.29365224,3.87390977 C3.29365224,4.4366698 3.29365224,4.99942983 3.29365224,5.56218986 C3.3120181,5.718442 3.21882608,5.86654993 3.06886932,5.91943214 C2.76590105,6.05736352 2.47689445,6.2256398 2.17811467,6.37736432 C2.07529777,6.4236143 2.01082024,6.52651303 2.01476311,6.63805463 C1.96213717,7.80566305 1.98498767,8.97539935 2.08317531,10.1401324 C2.11477468,10.614344 2.176796,11.0860973 2.26886554,11.5525497 C2.42663243,12.353931 2.8063899,13.0697949 3.26293656,13.7401414 C3.8146806,14.5331462 4.4721497,15.249024 5.21757059,15.8684226 C6.93206388,17.3360125 8.74568503,18.6794641 10.5690793,20.006364 C11.0186452,20.3346407 11.4723995,20.6574001 11.9247577,20.9801595 C12.01132,21.0422286 12.1048632,21.0987805 12.1942179,21.1567117 C12.294742,21.0380907 12.2207451,20.9718836 12.1565214,20.9139525 C12.0001507,20.7760211 11.835403,20.6380897 11.6776361,20.5001583 C10.2814689,19.276707 8.8615669,18.0822212 7.50728475,16.8173905 C6.05666706,15.4642836 4.97603367,13.8560037 4.44967865,11.9249644 C4.2349244,11.1359893 4.12556096,10.3226505 4.1243717,9.50564802 C4.1243717,7.00081415 4.1243717,4.49598029 4.1243717,1.99114643 C4.1243717,1.89321515 4.13274871,1.79528387 4.13833337,1.69045602 C4.72145642,1.41043561 5.32891423,1.18284972 5.95335069,1.01045432 C7.29259743,0.625194667 8.66320768,0.355673813 10.0497052,0.204935059 C11.5691062,0.0271513729 13.1000831,-0.035100759 14.6291335,0.0187276962 C16.7508996,0.10840885 18.8534659,0.455378572 20.889547,1.05183373 C21.4480139,1.21183413 21.9939153,1.40493807 22.5440051,1.58424886 C22.6487177,1.6187317 22.7478455,1.66562837 22.8748968,1.72218024 L22.8748968,2.05459487 C22.8748968,4.38287656 22.8748968,6.71115826 22.8748968,9.03943995 C22.8748968,10.6339267 22.6124173,12.1773788 21.8905989,13.624279 C21.3656551,14.6991168 20.6604102,15.6784586 19.8047252,16.520838 C18.9209513,17.3773919 17.9813308,18.1760146 17.0542758,18.9898097 C16.3352497,19.6187768 15.5980735,20.2311921 14.8706704,20.8477454 C14.784108,20.920849 14.6528683,20.9718836 14.6807917,21.1442979 C14.8385585,21.1636083 14.9237247,21.0449873 15.0200603,20.9718836 C16.4776588,19.8780878 17.9520113,18.802223 19.3830827,17.6753237 C20.438585,16.8477354 21.4522024,15.9594573 22.4546504,15.0670413 C22.8499895,14.6930903 23.2150423,14.2890927 23.5464532,13.8587624 C24.3003834,12.942898 24.6759524,11.8670332 24.8462848,10.7139269 C25.0431444,9.37599252 24.9859015,8.02840294 24.9859015,6.68357198 C24.9947543,6.54904183 24.9154483,6.42401735 24.7890419,6.37322638 C24.4330193,6.19115695 24.0811852,6.00219096 23.7125971,5.80770772 L23.7125971,3.61459877 C24.8711353,4.05180975 25.9692671,4.63155345 26.9810244,5.34012034 C26.9810244,6.18426038 26.9880052,7.02288318 26.9810244,7.86012665 C26.9740436,8.54978355 26.9572895,9.22702663 26.9237815,9.90978696 C26.8330307,11.769102 26.1056276,13.3580715 24.8602465,14.7484198 C24.1609554,15.5076148 23.3863997,16.1956532 22.5481936,16.802218 C20.6912913,18.1815318 18.7520151,19.4449833 16.8239083,20.7249865 C15.0172679,21.9263688 13.221797,23.1429236 11.4221375,24.3539611 C11.3304042,24.4127009 11.2511953,24.4886108 11.1889776,24.5774099 C11.952681,24.3015472 12.6744994,23.9470635 13.4074872,23.6118903 C14.140475,23.276717 14.8762551,22.9443024 15.6385623,22.595336 Z M8.59629514,16.024285 C8.68124403,16.0399867 8.7670064,16.051038 8.8531899,16.0573886 C10.6682072,16.0573886 12.4916015,16.0656645 14.3094112,16.0573886 C15.176431,16.0573886 16.019716,15.9194572 16.7959849,15.4932492 C17.9645768,14.8518683 18.5774942,13.8560037 18.5998329,12.5594488 C18.6361332,10.3856502 18.6235677,8.21185167 18.5998329,6.03805312 C18.5872674,4.64218756 17.7118706,3.46977083 16.3952849,2.96356266 C15.7936327,2.7556229 15.1588421,2.65702082 14.5216286,2.67252745 C12.6340106,2.64907911 10.7519772,2.65045843 8.86017073,2.64494117 C8.77586411,2.65121112 8.69225476,2.66459326 8.61025681,2.68494127 C8.70240384,2.79252775 8.76104286,2.86976932 8.82805889,2.94149364 C9.04725713,3.1773563 9.26366304,3.41459827 9.48984212,3.64218505 C9.61118604,3.75640357 9.67681853,3.9167449 9.66994769,4.08218615 C9.66994769,7.60219497 9.66994769,11.1222038 9.66994769,14.6422126 C9.67763956,14.7968336 9.61821831,14.9473566 9.50659613,15.0560068 C9.21758953,15.3511799 8.93416759,15.6629048 8.59629514,16.024285 Z" id="Shape"></path>
                <path d="M74.439986,19.7627022 L71.4957193,19.7627022 C71.4265401,19.5044911 71.400252,7.28482229 71.4680476,6.70140464 C71.7004897,6.65674109 71.9453841,6.60091165 72.191662,6.56183104 C73.4378988,6.36111302 74.7015193,6.29234836 75.9619285,6.35665785 C76.6537205,6.39434272 77.330293,6.4711082 77.9446043,6.8353953 C78.0317461,6.87623432 78.1315623,6.87975857 78.2213211,6.84516545 C79.3420242,6.37898962 80.5153034,6.28687105 81.7065693,6.35526211 C82.5367197,6.40550861 83.3142939,6.62743063 83.9645784,7.20107813 C84.4533866,7.62999418 84.7665533,8.22700309 84.8431542,8.87596134 C84.8910666,9.21813712 84.9155679,9.56323472 84.9164842,9.90880599 C84.9220185,13.0799182 84.9220185,16.2505652 84.9164842,19.4207469 L84.9164842,19.7138515 C84.6715898,19.7920127 82.3665388,19.811553 81.8850516,19.7403704 L81.8850516,10.5215341 C81.8850516,10.432207 81.8850516,10.3428799 81.8850516,10.2535528 C81.8739829,9.54451889 81.5031824,9.15231707 80.8058561,9.12300662 C80.3545321,9.10159825 79.9044779,9.18666481 79.4914513,9.37144763 L79.4914513,19.7222259 C79.2507076,19.7948042 77.4395962,19.8185317 76.8723267,19.7543278 C76.8723267,19.6217329 76.8501894,19.4821593 76.8501894,19.3425857 C76.8501894,16.4282889 76.8501894,13.5144574 76.8501894,10.6010911 C76.8536643,10.4222684 76.8481228,10.2433832 76.8335864,10.0651284 C76.7768594,9.47333636 76.4185112,9.10207058 75.8208029,9.06717718 C75.4472352,9.04624114 75.0695168,9.06717718 74.6945655,9.07834307 C74.4690413,9.08811322 74.4510547,9.11881941 74.439986,9.33794996 C74.439986,9.43844296 74.439986,9.53893595 74.439986,9.63942894 L74.439986,19.7627022 L74.439986,19.7627022 Z" id="Path"></path>
                <path d="M61.175075,6.33335776 L65.8145117,6.33335776 C66.3365346,6.33184945 66.856585,6.40020013 67.3619003,6.53675768 C68.7523668,6.91790742 69.6106625,7.9319364 69.7907819,9.41102496 C69.8239445,9.68129764 69.840807,9.95347245 69.8412698,10.2259459 C69.8412698,13.2751438 69.8412698,16.3238677 69.8412698,19.3721175 L69.8412698,19.7916667 L66.7983452,19.7916667 L66.7983452,15.1368043 L64.1115655,15.1368043 C64.0965556,15.9190146 64.1115655,16.6884251 64.1047428,17.4578356 C64.0979201,18.2272461 64.1047428,18.999501 64.1047428,19.7916667 L61.1709814,19.7916667 C61.091838,19.5086488 61.089109,6.64911152 61.175075,6.33335776 Z M66.7696898,12.6536422 C66.7838678,12.6072105 66.7943645,12.5596441 66.8010743,12.5114221 C66.8010743,11.5557034 66.8174487,10.6014068 66.8010743,9.64711025 C66.7874289,8.96303179 66.4108158,8.58188205 65.7503783,8.54632703 C65.3478389,8.52357183 64.943935,8.53637163 64.5400311,8.53352723 L64.1688762,8.53352723 C64.077452,8.95023199 64.0965556,12.4033349 64.1838861,12.6493756 L66.7696898,12.6536422 Z" id="Shape"></path>
                <path d="M49.2822841,13.8715704 C49.3258473,13.8993758 49.3725086,13.921767 49.4212758,13.9382677 C50.1829501,14.1241689 50.7430865,14.7386362 50.7736647,15.7830886 C50.8070227,16.918363 50.7875638,18.0536375 50.7917336,19.1889119 L50.7917336,19.7239099 C50.534599,19.7962837 48.2315072,19.8175701 47.7130683,19.7537109 C47.7061187,19.6416025 47.6922195,19.5209796 47.6922195,19.4003567 C47.6922195,18.321846 47.6922195,17.2433353 47.6922195,16.1648247 C47.6922195,16.06265 47.6922195,15.9604753 47.6922195,15.8583006 C47.6713708,15.4198008 47.4767824,15.1487541 47.0584175,15.1246295 C46.4301752,15.086314 45.7977632,15.1146958 45.1236536,15.1146958 C45.1028048,15.8966161 45.116704,16.6643454 45.1139242,17.4306556 C45.1111443,18.1969658 45.1139242,18.9689524 45.1139242,19.7608063 L42.1256034,19.7608063 C42.0561076,19.5238178 42.0366488,6.77326712 42.1103144,6.34895831 C42.2131682,6.34895831 42.3215817,6.33334071 42.4299952,6.33334071 C44.1187439,6.33334071 45.8088825,6.33334071 47.4990211,6.33334071 C47.8326341,6.33279772 48.1656468,6.36223933 48.4942014,6.42133206 C49.7729247,6.66683515 50.4553738,7.44875539 50.5081906,8.78979829 C50.5498881,9.8214789 50.5220898,10.8559977 50.5206998,11.8876783 C50.5165096,11.9897985 50.5039566,12.0913816 50.4831721,12.1913642 C50.3917493,12.7951577 50.0471756,13.3283082 49.5394187,13.6516109 C49.4574136,13.7069556 49.3781884,13.7679766 49.2975732,13.8275785 C49.2878438,13.8289976 49.2892337,13.8431885 49.2822841,13.8715704 Z M45.1625713,8.55139066 C45.0847359,8.94306033 45.1014149,12.3829418 45.1848099,12.6412167 C45.6546017,12.6412167 46.1313431,12.6667604 46.6053047,12.6341212 C47.1070646,12.5986439 47.3503,12.3304353 47.4281354,11.8124664 C47.4482697,11.6785863 47.459415,11.5434574 47.4614934,11.4080249 C47.4614934,10.8290349 47.4614934,10.250518 47.4614934,9.67247414 C47.4608456,9.53678625 47.4482861,9.40143076 47.4239656,9.26803263 C47.3503,8.86359112 47.100115,8.59538255 46.7137182,8.55848613 C46.1924995,8.51591334 45.6712807,8.55139066 45.1625713,8.55139066 Z" id="Shape"></path>
                <path d="M30.1587302,19.7736813 C30.2708002,19.5914818 30.3951519,19.4173658 30.5308953,19.2525794 C30.9506303,18.8152513 31.0415729,18.3040887 31.0359765,17.7034726 C31.0107924,14.4916672 31.0191871,11.2798619 31.0359765,8.06663661 C31.0556749,7.72747309 30.9453824,7.39371659 30.7281707,7.13518466 C30.5336935,6.90658136 30.372795,6.64674034 30.168524,6.3585014 C30.3084357,6.34714223 30.383988,6.33436316 30.4665359,6.33436316 C32.15527,6.33436316 33.8454032,6.33436316 35.5341373,6.33436316 C36.2630589,6.31971457 36.9868092,6.4614855 37.6579968,6.75039277 C38.964772,7.34390941 39.6433436,8.38895306 39.6643304,9.82446818 C39.695111,11.9543126 39.6811198,14.0926764 39.6643304,16.2267804 C39.6643304,17.7233511 38.8318558,18.901865 37.4495283,19.4471052 C36.8297903,19.680823 36.1728433,19.7963529 35.5117514,19.7878803 C33.8006315,19.7963997 32.0895115,19.7878803 30.3769924,19.7878803 C30.3224268,19.79214 30.2706595,19.7836206 30.1587302,19.7736813 Z M34.1112354,17.3854158 C34.5085846,17.3854158 34.8863462,17.3712168 35.2613095,17.3854158 C35.6236501,17.4103721 35.9789639,17.2753459 36.2360347,17.0150012 C36.4931055,16.7546565 36.6268971,16.3943484 36.6030626,16.0265751 C36.5806767,15.2087148 36.6030626,14.3922745 36.6030626,13.5744142 C36.6030626,12.3717621 36.6030626,11.16769 36.6030626,9.96503791 C36.6030626,9.30762594 36.2155072,8.81208215 35.5998958,8.70558993 C35.1158013,8.62181605 34.620514,8.67435221 34.1168319,8.67151242 L34.1112354,17.3854158 Z" id="Shape"></path>
                <path d="M58.7301587,6.33427955 L58.7301587,8.78972214 C58.5914724,8.7968188 58.4777495,8.80675411 58.3598661,8.80675411 C57.3391345,8.80675411 56.3184029,8.81810876 55.2976712,8.80675411 C54.9232181,8.80675411 54.6486191,8.96288052 54.6375242,9.43267907 C54.6208818,10.1707312 54.6375242,10.9087833 54.6375242,11.6468354 C54.6453079,11.7061054 54.6583047,11.7645352 54.6763563,11.8214131 C55.0688387,11.8214131 55.4640949,11.8299291 55.8579642,11.8313484 L58.2613988,11.8313484 L58.2613988,14.2569851 C57.0714698,14.2967263 55.880154,14.2569851 54.6555534,14.2811137 C54.6458453,14.4116921 54.6305898,14.5209806 54.6305898,14.6316884 C54.6305898,15.290258 54.6305898,15.9474083 54.6305898,16.6059778 C54.6305898,17.116937 54.8108821,17.3028693 55.3143136,17.305708 C56.3239503,17.305708 57.3335871,17.305708 58.3418369,17.305708 L58.7218375,17.305708 L58.7218375,19.7654086 C58.6233702,19.7725052 58.5276766,19.7866985 58.431983,19.7866985 C57.1838058,19.7866985 55.9467234,19.8023112 54.7054805,19.7781826 C54.2835057,19.7742662 53.86386,19.7136632 53.4573032,19.5979275 C52.3686153,19.2814167 51.7930668,18.493688 51.639125,17.3653199 C51.601186,17.0503492 51.5840424,16.7331189 51.587811,16.4157875 C51.587811,14.1230948 51.587811,11.8299291 51.587811,9.53629024 C51.5856441,9.21890863 51.6121068,8.90199977 51.6668623,8.58959647 C51.9081765,7.32639191 52.7125574,6.5656305 53.9746033,6.40098811 C54.293413,6.35983822 54.6143674,6.33850912 54.9356998,6.33711822 C56.0673806,6.32860223 57.1990613,6.33711822 58.3293551,6.33711822 L58.7301587,6.33427955 Z" id="Path"></path>
                <path d="M91.9971951,19.7916667 L88.7716726,19.7916667 C88.7298409,19.2008894 88.7597207,18.6129592 88.7537447,18.0278762 C88.7477688,17.4427932 88.7537447,16.8662515 88.7537447,16.2854391 L88.7537447,9.18614696 C88.2711862,9.12493389 87.8065556,9.18614696 87.3015873,9.14059305 C87.613831,8.19677297 87.9215928,7.27003561 88.2323425,6.33333333 L91.9986891,6.33333333 C92.0853405,6.62089239 92.0853405,19.4941427 91.9971951,19.7916667 Z" id="Path"></path>
                <path d="M97.5760924,19.7916667 L94.3303175,19.7916667 L94.3303175,9.1665168 L92.8571429,9.1665168 C93.1820198,8.19127526 93.4919254,7.26301615 93.8003339,6.33333333 L97.5431556,6.33333333 C97.6225034,6.59814345 97.6494517,19.2563516 97.5760924,19.7916667 Z" id="Path"></path>
                <path d="M12.6984127,14.2403672 L12.6984127,5.54743573 C13.1770744,5.54743573 13.6349247,5.52937754 14.0888729,5.55715936 C14.2743054,5.57880202 14.4524539,5.64634192 14.6091573,5.75441029 C14.9096531,5.92814713 15.091697,6.26904366 15.078714,6.63370489 C15.0683083,7.43382131 15.078714,8.23393772 15.078714,9.03405414 C15.078714,10.2666409 15.078714,11.4992276 15.078714,12.7318144 C15.078714,12.8540544 15.078714,12.9762944 15.069609,13.0985344 C15.0136785,13.7833563 14.6572836,14.1875817 14.0199352,14.2348108 C13.5933019,14.2653708 13.1666687,14.2403672 12.6984127,14.2403672 Z" id="Path"></path>
            </g>
        </g>
    </g>
</svg>