<?xml version="1.0" encoding="UTF-8"?>
<svg width="124px" height="48px" viewBox="0 0 124 48" version="1.1" xmlns="http://www.w3.org/2000/svg" xmlns:xlink="http://www.w3.org/1999/xlink">
    <!-- Generator: Sketch 57.1 (83088) - https://sketch.com -->
    <title>Logo/New/Tencent_Grey</title>
    <desc>Created with Sketch.</desc>
    <g id="Logo/New/Tencent_Grey" stroke="none" stroke-width="1" fill="none" fill-rule="evenodd">
        <g id="Logo_Tencent_Grey" transform="translate(0.000000, 16.000000)" fill="#6E7274" fill-rule="nonzero">
            <g id="Tencent_Logo" transform="translate(0.000000, 0.291667)">
                <path d="M76.6664289,4.9930166 L73.1009249,4.9930166 L74.5030828,7.03752714 L76.3104649,7.03752714 L74.7916071,15.8330949 L77.9571648,15.8330949 L79.4795412,7.03752714 L83.4285714,7.03752714 L77.1942173,1.93936428 L76.6664289,4.9930166 L76.6664289,4.9930166 Z M14.7786622,0 L0.392909159,0 L0,2.3032037 L5.5857608,2.3032037 L3.24531236,15.8333333 L6.41204289,15.8333333 L8.75249133,2.3032037 L14.3857531,2.3032037 L14.7786622,0 Z" id="Shape"></path>
                <path d="M18.1475365,9.11750603 L12.6224849,9.11750603 C12.9543411,8.02551151 14.0275779,6.51609329 15.9822341,6.51609329 C18.1087023,6.51609329 18.3334701,8.12884003 18.1475365,9.11750603 L18.1475365,9.11750603 Z M16.5012006,4.67379287 C12.4624409,4.67379287 9.87761108,7.21003819 9.36452855,10.156075 C8.79554826,13.4279489 10.810221,15.8227046 14.8854613,15.8227046 C16.7065513,15.8227046 18.4105502,15.481016 19.7944609,14.7130973 L20.2245793,12.2731353 C18.8724421,13.2394918 17.1519681,13.7802052 15.693331,13.7802052 C13.6615948,13.7802052 12.0464439,12.9359643 12.3006316,10.9997288 L20.6958857,10.9997288 C20.79709,10.7701751 20.9182999,10.3674288 21.0059711,9.86487646 C21.4125537,7.52765595 20.5817366,4.67379287 16.5012006,4.67379287 L16.5012006,4.67379287 Z M30.5319508,4.67449739 C28.5490516,4.67449739 27.0639366,5.49466746 26.3637436,6.32364394 L26.2896056,6.32364394 L23.4929527,4.67449739 C23.3899832,5.59975725 23.2522982,6.85613804 23.0375331,8.08962216 L21.7324677,15.5909199 L24.9086369,15.5909199 L26.0136472,9.30901603 C26.066603,9.00079177 26.1713377,8.67378051 26.3084343,8.45185905 C26.7826826,7.62757932 27.7788394,6.86846701 29.0409518,6.86846701 C30.774959,6.86846701 31.2468537,8.03560953 30.9803096,9.56675022 L29.9182523,15.5909199 L33.0955983,15.5909199 L34.2141418,9.24971955 C34.8019508,5.87334297 32.7207892,4.67449739 30.5319508,4.67449739 L30.5319508,4.67449739 Z M68.6443285,4.67449739 C66.6608409,4.67449739 65.1763143,5.49466746 64.4761214,6.32364394 L64.4019833,6.32364394 L61.6053305,4.67449739 C61.5023609,5.59975725 61.3646759,6.85613804 61.1493225,8.08962216 L59.8448454,15.5909199 L63.0204262,15.5909199 L64.1260249,9.30901603 C64.1783923,9.00079177 64.2837154,8.67378051 64.4196352,8.45185905 C64.8950603,7.62757932 65.8906287,6.86846701 67.1521527,6.86846701 C68.8879251,6.86846701 69.3592314,8.03560953 69.0926874,9.56675022 L68.0312185,15.5909199 L71.207976,15.5909199 L72.3259311,9.24971955 C72.9131517,5.87334297 70.8331669,4.67449739 68.6443285,4.67449739 L68.6443285,4.67449739 Z M56.259919,9.11750603 L50.7348674,9.11750603 C51.0667235,8.02551151 52.1399604,6.51609329 54.0934397,6.51609329 C56.2210847,6.51609329 56.4458525,8.12884003 56.259919,9.11750603 L56.259919,9.11750603 Z M54.6129946,4.67379287 C50.5748233,4.67379287 47.9899935,7.21003819 47.476911,10.156075 C46.9079307,13.4279489 48.9226034,15.8227046 52.9978438,15.8227046 C54.8183453,15.8227046 56.5229326,15.481016 57.9068433,14.7130973 L58.3369618,12.2731353 C56.9848246,13.2394918 55.2643506,13.7802052 53.805125,13.7802052 C51.7745656,13.7802052 50.1605915,12.9359643 50.413014,10.9997288 L58.8100333,10.9997288 C58.9094724,10.7701751 59.0312707,10.3674288 59.1201187,9.86487646 C59.5249361,7.52765595 58.6935306,4.67379287 54.6129946,4.67379287 L54.6129946,4.67379287 Z M35.5473279,10.1090511 C34.9712868,13.4231958 37.2966333,15.821474 41.2324235,15.821474 C42.7975606,15.821474 44.6663108,15.3729344 45.3741528,15.1105034 L45.8878238,12.2566403 C44.7839902,13.4413957 43.2876957,13.687388 42.2262268,13.687388 C40.0638663,13.687388 38.4269447,12.4310072 38.8076379,10.2423214 C39.1383172,8.28495062 40.9958878,6.78081625 43.4177315,6.78081625 C44.4038855,6.78081625 45.7419012,7.11017588 46.5856631,8.21802193 L47.0781517,5.31543006 C46.3950223,5.05358622 45.3011916,4.68019454 43.6825103,4.68019454 C39.2659994,4.68019454 36.1039518,6.91291236 35.5473279,10.1090511 L35.5473279,10.1090511 Z M97.4738006,7.18420606 C97.1731295,6.84897549 96.8553949,6.30121695 96.6606354,5.91373503 L96.0057491,5.91373503 C95.6515338,6.35464249 95.1207994,6.84897549 94.661261,7.18420606 L97.4738006,7.18420606 Z M96.8195027,8.50810264 L92.9454942,8.50810264 L94.1128746,9.03766127 L93.9004632,10.0967785 L96.4658758,10.0967785 L96.8195027,8.50810264 Z M98.6594213,8.26152323 L98.2528387,10.0967785 L99.1195481,10.0967785 C99.7032383,10.0967785 100.128061,10.2206553 100.021561,10.944542 C99.8268018,12.2502387 99.4737633,14.0684682 99.1901558,15.6048928 L94.4841534,15.6048928 L94.0952227,14.2105449 L97.5626486,14.2105449 C97.7221043,13.4684584 97.9168638,12.5684435 98.0227753,11.8275311 C98.0580792,11.5797775 97.9521677,11.4911264 97.703864,11.4911264 L91.8304811,11.4911264 L92.3612156,8.64900515 C91.9363926,8.84333321 91.2997467,9.05586117 90.6801642,9.17856378 L91.0520314,7.46718529 C92.1493925,7.20240597 93.2632288,6.67167316 93.9534189,5.91373503 L91.3350505,5.91373503 L91.6357216,4.57163855 L94.8736725,4.57163855 C95.0501917,4.32505914 95.1919955,4.00685429 95.2631915,3.7773006 L91.7598734,3.7773006 L92.0252407,2.38295277 L93.2814691,2.38295277 L92.8213423,0.316969607 L94.6083052,0.316969607 L95.0331282,2.38295277 L95.6515338,2.38295277 C95.8462934,1.69429172 95.9880971,0.776076977 96.0057491,0.0169646631 L97.8280158,0.0169646631 C97.792712,0.776076977 97.6868004,1.67609181 97.5096928,2.38295277 L98.2345984,2.38295277 C98.518206,1.74771726 98.8006367,0.988604941 99.0307001,0.316969607 L100.852967,0.316969607 C100.60584,0.953379312 100.286929,1.72951735 99.9862575,2.38295277 L101.260138,2.38295277 L100.924163,3.7773006 L97.1207621,3.7773006 C97.049566,4.00685429 96.9077623,4.34208486 96.7841988,4.57163855 L101.454897,4.57163855 L101.136574,5.91373503 L98.4122944,5.91373503 C98.9953962,6.77852423 100.393428,7.43195966 101.472549,7.66033915 L100.871207,9.17856378 C100.128061,9.02063554 99.3143076,8.66720506 98.6594213,8.26152323 L98.6594213,8.26152323 Z M96.6776989,13.5218839 L90.6801642,13.5218839 L90.4330373,12.1627617 L96.9789584,12.1627617 L96.9789584,12.1797639 L96.6776989,13.5218604 L96.6776989,13.5218839 Z M89.6186953,1.9238454 L88.7349224,1.9238454 C88.5925302,2.77160888 88.4513148,3.65342381 88.2747956,4.57163855 L89.4774799,4.57163855 L89.9199548,2.25907598 C89.9729105,1.99429666 89.866999,1.9238454 89.6186953,1.9238454 L89.6186953,1.9238454 Z M89.2474165,5.96598638 L88.0264919,5.96598638 C87.8499727,6.88420112 87.6552132,7.83764149 87.4604536,8.79108186 L88.7349224,8.79108186 L89.2474165,5.96598638 L89.2474165,5.96598638 Z M91.7063293,1.4295124 C90.8396199,6.17851434 90.0617585,10.8740907 89.1768088,15.6048928 L87.3898459,15.6048928 C87.7440612,13.8218888 88.1506438,11.933208 88.4513148,10.1854297 L87.1780229,10.1854297 C86.7885038,12.020685 86.3819212,13.8571145 85.9924021,15.6048928 L84.2054392,15.6048928 C85.7087946,10.8206652 86.4525289,5.89553512 87.3009979,0.459046312 L90.6448604,0.459046312 C91.5121581,0.459046312 91.865785,0.59994883 91.7063293,1.4295124 L91.7063293,1.4295124 Z M116.270391,0.476133091 L108.008703,0.476133091 L108.361741,2.04660907 L114.536972,2.04660907 C114.943555,2.04660907 115.138314,2.10003461 115.049466,2.55914198 C114.819403,3.82961301 114.572276,5.11828396 114.323972,6.37172927 L111.634996,6.37172927 L112.095123,3.68871049 L110.220489,2.59436761 L109.530299,6.37172927 L107.530336,6.37172927 L107.264969,7.94337944 L109.229628,7.94337944 C108.821868,10.4854957 108.326438,13.0798633 107.813943,15.6219796 L109.953945,15.6219796 C110.449375,13.0628376 110.944806,10.5025214 111.369629,7.94337944 L114.041542,7.94337944 C113.598478,10.5025214 113.103048,13.1332888 112.607617,15.6219796 L116.394543,15.6219796 L117.048252,14.0333037 L115.032403,14.0333037 C115.828504,9.99116269 116.65991,5.77171938 117.367164,1.69435278 C117.526619,0.811363664 117.350077,0.476133091 116.270391,0.476133091 L116.270391,0.476133091 Z M107.194361,3.72393612 C106.928994,2.48869072 106.593019,1.20001978 106.309411,0 L104.310625,0 C104.575993,1.2170455 104.8596,2.52391635 105.089663,3.72393612 L107.194361,3.72393612 Z M102.824333,4.5534997 L106.539475,4.5534997 C106.168196,7.0251647 105.743373,9.53205532 105.266183,12.038946 C105.973436,11.5093873 106.717171,10.944016 107.389121,10.3616189 L106.999601,12.6389558 C105.743373,13.6980731 104.009954,14.9333185 102.417751,15.8333333 C103.107941,12.6389558 103.744587,9.2490761 104.204714,6.12514986 L102.541903,6.12514986 L102.824333,4.5534997 L102.824333,4.5534997 Z" id="Shape"></path>
            </g>
        </g>
    </g>
</svg>