<?xml version="1.0" encoding="UTF-8"?>
<svg width="124px" height="48px" viewBox="0 0 124 48" version="1.1" xmlns="http://www.w3.org/2000/svg" xmlns:xlink="http://www.w3.org/1999/xlink">
    <!-- Generator: Sketch 57.1 (83088) - https://sketch.com -->
    <title>Logo/New/Ebay_Grey</title>
    <desc>Created with Sketch.</desc>
    <g id="Logo/New/Ebay_Grey" stroke="none" stroke-width="1" fill="none" fill-rule="evenodd">
        <g id="Logo_Ebay_Grey" transform="translate(0.000000, 12.000000)" fill="#6E7274" fill-rule="nonzero">
            <g id="EBay_logo" transform="translate(0.000000, 0.125000)">
                <path d="M7.60877553,5.16383452 C3.46913547,5.16383452 0.0195761264,6.924687 0.0195761264,12.2370986 C0.0195761264,16.4456981 2.33915507,19.0960213 7.7156656,19.0960213 C14.0440702,19.0960213 14.4497439,14.9163651 14.4497439,14.9163651 L11.3833333,14.9163651 C11.3833333,14.9163651 10.7258691,17.1669493 7.52860789,17.1669493 C4.92452596,17.1669493 3.05156815,15.4031987 3.05156815,12.9310457 L14.7704143,12.9310457 L14.7704143,11.3797332 C14.7704143,8.93399667 13.2218821,5.16383452 7.60877553,5.16383452 L7.60877553,5.16383452 Z M7.50188528,7.14649179 C9.98070165,7.14649179 11.6706005,8.66905267 11.6706005,10.9510504 L3.11938993,10.9510504 C3.11938993,8.52843068 5.32513847,7.14649179 7.50188528,7.14649179 L7.50188528,7.14649179 Z" id="e"></path>
                <path d="M14.7682391,0.0196423865 L14.7682391,16.428149 C14.7682391,17.3595479 14.7019373,18.6673387 14.7019373,18.6673387 L17.6266469,18.6673387 C17.6266469,18.6673387 17.7316247,17.7280648 17.7316247,16.8696599 C17.7316247,16.8696599 19.1766202,19.1362102 23.1056699,19.1362102 C27.2431176,19.1362102 30.053528,16.2561764 30.053528,12.1299278 C30.053528,8.29133816 27.4720752,5.20402345 23.1123495,5.20402345 C19.0297744,5.20402345 17.7611629,7.41441848 17.7611629,7.41441848 L17.7611629,0.0196423865 L14.7682391,0.0196423865 Z M22.3574379,7.23356792 C25.1670868,7.23356792 26.953715,9.32428651 26.953715,12.1299278 C26.953715,15.1384689 24.8902191,17.1066657 22.3774806,17.1066657 C19.3787473,17.1066657 17.7611629,14.7591223 17.7611629,12.1567205 C17.7611629,9.7317892 19.2126687,7.23356792 22.3574379,7.23356792 Z" id="b"></path>
                <path d="M37.3220566,5.16383452 C31.0942812,5.16383452 30.6948692,8.58280915 30.6948692,9.12914925 L33.7946822,9.12914925 C33.7946822,9.12914925 33.9572355,7.13309541 37.1082769,7.13309541 C39.1558745,7.13309541 40.7425422,8.07277319 40.7425422,9.87934383 L40.7425422,10.5223678 L37.1082769,10.5223678 C32.2835317,10.5223678 29.7328574,11.9375008 29.7328574,14.8091945 C29.7328574,17.6353537 32.0895988,19.1730502 35.2744433,19.1730502 C39.6148918,19.1730502 41.0131061,16.7684084 41.0131061,16.7684084 C41.0131061,17.7248433 41.086652,18.6673387 41.086652,18.6673387 L43.8423552,18.6673387 C43.8423552,18.6673387 43.7354643,17.4990862 43.7354643,16.7516629 L43.7354643,10.2912811 C43.7354643,6.05529725 40.3276449,5.16383452 37.3220566,5.16383452 L37.3220566,5.16383452 Z M40.7425422,12.4514398 L40.7425422,13.3088052 C40.7425422,14.4270433 40.0543167,17.2071382 36.0026327,17.2071382 C33.7839443,17.2071382 32.8326724,16.0969423 32.8326724,14.8091945 C32.8326724,12.4665273 36.0361637,12.4514398 40.7425422,12.4514398 L40.7425422,12.4514398 Z" id="a"></path>
                <polygon id="y" points="42.0662612 5.70022788 45.5535523 5.70022788 50.5582996 15.7532192 55.5515964 5.70022788 58.710582 5.70022788 49.6153771 23.5977232 46.3017824 23.5977232 48.9263177 18.6085523"></polygon>
            </g>
        </g>
    </g>
</svg>